<svg width="100%" viewBox="0 0 50 50" fill="none" xmlns="http://www.w3.org/2000/svg">
<path d="M25 0.00133918C18.4397 -0.0684365 12.1213 2.59094 7.43348 7.39501C2.74565 12.1991 0.071955 18.7547 0 25.6212C0.0252781 31.0477 1.69305 36.3262 4.76378 40.6985C7.8345 45.0709 12.1502 48.3121 17.0909 49.9566C18.3409 50.1944 18.7955 49.4094 18.7955 48.7196V44.3663C11.8409 45.9126 10.3636 40.9408 10.3636 40.9408C9.90067 39.3801 8.91644 38.0459 7.59091 37.1823C5.31818 35.6123 7.77273 35.6361 7.77273 35.6361C8.5583 35.746 9.3099 36.0406 9.97116 36.4979C10.6324 36.9552 11.1862 37.5633 11.5909 38.2766C12.2962 39.5566 13.4535 40.4957 14.8137 40.8917C16.1738 41.2876 17.6282 41.1088 18.8636 40.3937C18.9907 39.091 19.5543 37.8775 20.4545 36.9682C14.9091 36.3259 9.09091 34.1374 9.09091 24.3129C9.04132 21.7501 9.94601 19.2677 11.6136 17.3905C10.8542 15.1903 10.9438 12.7668 11.8636 10.6347C11.8636 10.6347 13.9773 9.94481 18.6818 13.2514C22.777 12.1091 27.0866 12.1091 31.1818 13.2514C35.9545 9.94481 38 10.6347 38 10.6347C38.9198 12.7668 39.0095 15.1903 38.25 17.3905C39.9564 19.2333 40.9101 21.6991 40.9091 24.2653C40.9091 34.1136 35.0455 36.2783 29.5455 36.9206C30.1477 37.5326 30.6129 38.2767 30.9076 39.0993C31.2023 39.9219 31.3193 40.8027 31.25 41.6783V48.6958C31.25 49.5284 31.7045 50.1944 32.9545 49.9328C37.8813 48.2781 42.1824 45.0361 45.2436 40.67C48.3048 36.3038 49.9696 31.0368 50 25.6212C49.928 18.7547 47.2543 12.1991 42.5665 7.39501C37.8787 2.59094 31.5603 -0.0684365 25 0.00133918Z" fill="currentColor"/>
</svg>
