<svg width="118" height="35" viewBox="0 0 118 35" fill="none" xmlns="http://www.w3.org/2000/svg">
<path d="M1.04297 18.9706C1.04297 18.0315 1.58604 17.1804 2.46655 16.8539C4.85658 15.9676 10.0673 14.375 16.6506 14.375C23.2339 14.375 28.4446 15.9676 30.8346 16.8539C31.7151 17.1804 32.2582 18.0315 32.2582 18.9706C32.2582 20.6968 30.4893 21.9179 28.8334 21.4302C25.897 20.5656 21.3992 19.5341 16.6506 19.5341C11.902 19.5341 7.40417 20.5656 4.46783 21.4302C2.81189 21.9179 1.04297 20.6968 1.04297 18.9706Z" fill="#00D4E6"/>
<rect width="32.4473" height="4.90697" rx="2.45349" transform="matrix(0.480814 -0.876823 0.854511 0.519434 0.298828 28.6919)" fill="#FF546D"/>
<rect width="32.1421" height="4.90697" rx="2.45349" transform="matrix(-0.480814 -0.876823 -0.85451 0.519434 33.2168 28.4243)" fill="#FFAA50"/>
<path d="M1.04297 27.578C1.04297 26.6389 1.58604 25.7878 2.46655 25.4613C4.85658 24.575 10.0673 22.9824 16.6506 22.9824C23.2339 22.9824 28.4446 24.575 30.8346 25.4613C31.7151 25.7878 32.2582 26.6389 32.2582 27.578C32.2582 29.3043 30.4893 30.5253 28.8334 30.0377C25.897 29.173 21.3992 28.1415 16.6506 28.1415C11.902 28.1415 7.40417 29.173 4.46783 30.0377C2.81189 30.5253 1.04297 29.3043 1.04297 27.578Z" fill="#6D86F5"/>
<path d="M27.9261 29.0895L22.4849 19.1668C21.8334 17.9786 22.2439 16.4449 23.4017 15.7411C24.5596 15.0372 26.0264 15.4298 26.6779 16.6179L32.1192 26.5406C32.7707 27.7287 32.3602 29.2625 31.2023 29.9663C30.0444 30.6702 28.5776 30.2776 27.9261 29.0895Z" fill="#FFAA50"/>
<path d="M14.6566 2.39246L9.21535 12.3152C8.56383 13.5033 8.97433 15.037 10.1322 15.7409C11.2901 16.4447 12.7569 16.0521 13.4084 14.864L18.8496 4.94131C19.5011 3.7532 19.0906 2.21946 17.9328 1.51561C16.7749 0.811769 15.3081 1.20435 14.6566 2.39246Z" fill="#FF546D"/>
<path d="M30.8344 16.8539C28.7659 16.0868 24.5846 14.7907 19.2291 14.4559C17.8072 14.367 16.6504 15.5299 16.6504 16.9546C16.6504 18.3792 17.8077 19.5266 19.2285 19.6307C22.9956 19.9067 26.4351 20.7241 28.8332 21.4302C30.4891 21.9179 32.258 20.6968 32.258 18.9706C32.258 18.0315 31.7149 17.1804 30.8344 16.8539Z" fill="#00D4E6"/>
<path d="M50.7754 26.0224L49.0154 21.2124C48.9287 20.9991 48.8387 20.7458 48.7454 20.4524C48.6521 20.1591 48.5587 19.8424 48.4654 19.5024C48.3787 19.8424 48.2887 20.1624 48.1954 20.4624C48.1021 20.7558 48.0121 21.0124 47.9254 21.2324L46.1754 26.0224H50.7754ZM55.5254 31.4824H53.4454C53.2121 31.4824 53.0221 31.4258 52.8754 31.3124C52.7287 31.1924 52.6187 31.0458 52.5454 30.8724L51.4654 27.9224H45.4754L44.3954 30.8724C44.3421 31.0258 44.2387 31.1658 44.0854 31.2924C43.9321 31.4191 43.7421 31.4824 43.5154 31.4824H41.4154L47.1054 17.0224H49.8454L55.5254 31.4824ZM65.4921 29.2624V31.4824H57.0221V17.0224H59.7121V29.2624H65.4921ZM70.1127 31.4824H67.4127V17.0224H70.1127V31.4824ZM91.0535 24.2524C91.0535 25.3124 90.8768 26.2858 90.5235 27.1724C90.1702 28.0591 89.6735 28.8224 89.0335 29.4624C88.3935 30.1024 87.6235 30.5991 86.7235 30.9524C85.8235 31.3058 84.8235 31.4824 83.7235 31.4824H78.2135V17.0224H83.7235C84.8235 17.0224 85.8235 17.2024 86.7235 17.5624C87.6235 17.9158 88.3935 18.4124 89.0335 19.0524C89.6735 19.6858 90.1702 20.4458 90.5235 21.3324C90.8768 22.2191 91.0535 23.1924 91.0535 24.2524ZM88.2935 24.2524C88.2935 23.4591 88.1868 22.7491 87.9735 22.1224C87.7668 21.4891 87.4635 20.9558 87.0635 20.5224C86.6702 20.0824 86.1902 19.7458 85.6235 19.5124C85.0635 19.2791 84.4302 19.1624 83.7235 19.1624H80.9135V29.3424H83.7235C84.4302 29.3424 85.0635 29.2258 85.6235 28.9924C86.1902 28.7591 86.6702 28.4258 87.0635 27.9924C87.4635 27.5524 87.7668 27.0191 87.9735 26.3924C88.1868 25.7591 88.2935 25.0458 88.2935 24.2524ZM96.1284 19.1624V23.1724H101.188V25.2424H96.1284V29.3324H102.548V31.4824H93.4284V17.0224H102.548V19.1624H96.1284ZM117.322 17.0224L111.482 31.4824H109.052L103.212 17.0224H105.372C105.606 17.0224 105.796 17.0791 105.942 17.1924C106.089 17.3058 106.199 17.4524 106.272 17.6324L109.682 26.4524C109.796 26.7391 109.902 27.0558 110.002 27.4024C110.109 27.7424 110.209 28.0991 110.302 28.4724C110.382 28.0991 110.469 27.7424 110.562 27.4024C110.656 27.0558 110.759 26.7391 110.872 26.4524L114.262 17.6324C114.316 17.4791 114.419 17.3391 114.572 17.2124C114.732 17.0858 114.926 17.0224 115.152 17.0224H117.322Z" fill="#FFAA50"/>
</svg>
