<svg width="118" height="35" viewBox="0 0 118 35" fill="none" xmlns="http://www.w3.org/2000/svg">
<path d="M1.04297 18.7294C1.04297 17.7903 1.58604 16.9392 2.46655 16.6127C4.85658 15.7264 10.0673 14.1338 16.6506 14.1338C23.2339 14.1338 28.4446 15.7264 30.8346 16.6127C31.7151 16.9392 32.2582 17.7903 32.2582 18.7294C32.2582 20.4556 30.4893 21.6766 28.8334 21.189C25.897 20.3243 21.3992 19.2929 16.6506 19.2929C11.902 19.2929 7.40417 20.3243 4.46783 21.189C2.81189 21.6766 1.04297 20.4556 1.04297 18.7294Z" fill="#00D4E6"/>
<rect width="32.4473" height="4.90697" rx="2.45349" transform="matrix(0.480814 -0.876823 0.854511 0.519434 0.298828 28.4507)" fill="#FF546D"/>
<rect width="32.1421" height="4.90697" rx="2.45349" transform="matrix(-0.480814 -0.876823 -0.85451 0.519434 33.2168 28.1831)" fill="#FFAA50"/>
<path d="M1.04297 27.3368C1.04297 26.3977 1.58604 25.5466 2.46655 25.2201C4.85658 24.3338 10.0673 22.7412 16.6506 22.7412C23.2339 22.7412 28.4446 24.3338 30.8346 25.2201C31.7151 25.5466 32.2582 26.3977 32.2582 27.3368C32.2582 29.063 30.4893 30.2841 28.8334 29.7964C25.897 28.9318 21.3992 27.9003 16.6506 27.9003C11.902 27.9003 7.40417 28.9318 4.46783 29.7964C2.81189 30.2841 1.04297 29.063 1.04297 27.3368Z" fill="#6D86F5"/>
<path d="M27.9261 28.8483L22.4849 18.9255C21.8334 17.7374 22.2439 16.2037 23.4017 15.4998C24.5596 14.796 26.0264 15.1886 26.6779 16.3767L32.1192 26.2994C32.7707 27.4875 32.3602 29.0213 31.2023 29.7251C30.0444 30.429 28.5776 30.0364 27.9261 28.8483Z" fill="#FFAA50"/>
<path d="M14.6566 2.15125L9.21535 12.074C8.56383 13.2621 8.97433 14.7958 10.1322 15.4997C11.2901 16.2035 12.7569 15.8109 13.4084 14.6228L18.8496 4.7001C19.5011 3.51199 19.0906 1.97825 17.9328 1.2744C16.7749 0.570558 15.3081 0.963134 14.6566 2.15125Z" fill="#FF546D"/>
<path d="M30.8344 16.6127C28.7659 15.8456 24.5846 14.5495 19.2291 14.2146C17.8072 14.1258 16.6504 15.2887 16.6504 16.7134C16.6504 18.138 17.8077 19.2854 19.2285 19.3895C22.9956 19.6655 26.4351 20.4829 28.8332 21.189C30.4891 21.6766 32.258 20.4556 32.258 18.7294C32.258 17.7903 31.7149 16.9392 30.8344 16.6127Z" fill="#00D4E6"/>
<path d="M50.7754 25.7812L49.0154 20.9712C48.9287 20.7579 48.8387 20.5045 48.7454 20.2112C48.6521 19.9179 48.5587 19.6012 48.4654 19.2612C48.3787 19.6012 48.2887 19.9212 48.1954 20.2212C48.1021 20.5145 48.0121 20.7712 47.9254 20.9912L46.1754 25.7812H50.7754ZM55.5254 31.2412H53.4454C53.2121 31.2412 53.0221 31.1845 52.8754 31.0712C52.7287 30.9512 52.6187 30.8045 52.5454 30.6312L51.4654 27.6812H45.4754L44.3954 30.6312C44.3421 30.7845 44.2387 30.9245 44.0854 31.0512C43.9321 31.1779 43.7421 31.2412 43.5154 31.2412H41.4154L47.1054 16.7812H49.8454L55.5254 31.2412ZM65.4921 29.0212V31.2412H57.0221V16.7812H59.7121V29.0212H65.4921ZM70.1127 31.2412H67.4127V16.7812H70.1127V31.2412ZM91.0535 24.0112C91.0535 25.0712 90.8768 26.0445 90.5235 26.9312C90.1702 27.8179 89.6735 28.5812 89.0335 29.2212C88.3935 29.8612 87.6235 30.3579 86.7235 30.7112C85.8235 31.0645 84.8235 31.2412 83.7235 31.2412H78.2135V16.7812H83.7235C84.8235 16.7812 85.8235 16.9612 86.7235 17.3212C87.6235 17.6745 88.3935 18.1712 89.0335 18.8112C89.6735 19.4445 90.1702 20.2045 90.5235 21.0912C90.8768 21.9779 91.0535 22.9512 91.0535 24.0112ZM88.2935 24.0112C88.2935 23.2179 88.1868 22.5079 87.9735 21.8812C87.7668 21.2479 87.4635 20.7145 87.0635 20.2812C86.6702 19.8412 86.1902 19.5045 85.6235 19.2712C85.0635 19.0379 84.4302 18.9212 83.7235 18.9212H80.9135V29.1012H83.7235C84.4302 29.1012 85.0635 28.9845 85.6235 28.7512C86.1902 28.5179 86.6702 28.1845 87.0635 27.7512C87.4635 27.3112 87.7668 26.7779 87.9735 26.1512C88.1868 25.5179 88.2935 24.8045 88.2935 24.0112ZM96.1284 18.9212V22.9312H101.188V25.0012H96.1284V29.0912H102.548V31.2412H93.4284V16.7812H102.548V18.9212H96.1284ZM117.322 16.7812L111.482 31.2412H109.052L103.212 16.7812H105.372C105.606 16.7812 105.796 16.8379 105.942 16.9512C106.089 17.0645 106.199 17.2112 106.272 17.3912L109.682 26.2112C109.796 26.4979 109.902 26.8145 110.002 27.1612C110.109 27.5012 110.209 27.8579 110.302 28.2312C110.382 27.8579 110.469 27.5012 110.562 27.1612C110.656 26.8145 110.759 26.4979 110.872 26.2112L114.262 17.3912C114.316 17.2379 114.419 17.0979 114.572 16.9712C114.732 16.8445 114.926 16.7812 115.152 16.7812H117.322Z" fill="black"/>
</svg>
