<svg width="33" height="31" viewBox="0 0 33 31" fill="none" xmlns="http://www.w3.org/2000/svg">
<path d="M0.744141 18.7294C0.744141 17.7903 1.28722 16.9392 2.16772 16.6127C4.55775 15.7264 9.76843 14.1338 16.3518 14.1338C22.9351 14.1338 28.1458 15.7264 30.5358 16.6127C31.4163 16.9392 31.9594 17.7903 31.9594 18.7294V18.7294C31.9594 20.4556 30.1905 21.6766 28.5345 21.189C25.5982 20.3243 21.1003 19.2929 16.3518 19.2929C11.6032 19.2929 7.10534 20.3243 4.169 21.189C2.51306 21.6766 0.744141 20.4556 0.744141 18.7294V18.7294Z" fill="#00D4E6"/>
<rect width="32.4473" height="4.90697" rx="2.45349" transform="matrix(0.480814 -0.876823 0.854511 0.519434 0 28.4507)" fill="#FF546D"/>
<rect width="32.1421" height="4.90697" rx="2.45349" transform="matrix(-0.480814 -0.876823 -0.85451 0.519434 32.918 28.1831)" fill="#FFAA50"/>
<path d="M0.744141 27.3368C0.744141 26.3977 1.28722 25.5466 2.16772 25.2201C4.55775 24.3338 9.76843 22.7412 16.3518 22.7412C22.9351 22.7412 28.1458 24.3338 30.5358 25.2201C31.4163 25.5466 31.9594 26.3977 31.9594 27.3368V27.3368C31.9594 29.063 30.1905 30.2841 28.5345 29.7964C25.5982 28.9318 21.1003 27.9003 16.3518 27.9003C11.6032 27.9003 7.10534 28.9318 4.169 29.7964C2.51306 30.2841 0.744141 29.063 0.744141 27.3368V27.3368Z" fill="#6D86F5"/>
<path d="M27.6273 28.8483L22.1861 18.9255C21.5345 17.7374 21.945 16.2037 23.1029 15.4998C24.2608 14.796 25.7276 15.1886 26.3791 16.3767L31.8203 26.2994C32.4718 27.4875 32.0614 29.0213 30.9035 29.7251C29.7456 30.429 28.2788 30.0364 27.6273 28.8483Z" fill="#FFAA50"/>
<path d="M14.3577 2.15125L8.91652 12.074C8.26501 13.2621 8.6755 14.7958 9.83338 15.4997C10.9913 16.2035 12.4581 15.8109 13.1096 14.6228L18.5508 4.7001C19.2023 3.51199 18.7918 1.97825 17.6339 1.2744C16.4761 0.570558 15.0093 0.963134 14.3577 2.15125Z" fill="#FF546D"/>
<path d="M30.5356 16.6127C28.4671 15.8456 24.2857 14.5495 18.9303 14.2146C17.5084 14.1258 16.3516 15.2887 16.3516 16.7134C16.3516 18.138 17.5089 19.2854 18.9297 19.3895C22.6967 19.6655 26.1363 20.4829 28.5343 21.189C30.1903 21.6766 31.9592 20.4556 31.9592 18.7294C31.9592 17.7903 31.4161 16.9392 30.5356 16.6127Z" fill="#00D4E6"/>
</svg>
