<svg width="379" height="300" viewBox="0 0 379 300" fill="none" xmlns="http://www.w3.org/2000/svg">
<path d="M174.955 33.1832C175.169 33.1338 175.01 33.4546 175.01 33.4546C174.484 33.7009 165.236 36.8433 165.261 40.8152C165.27 42.223 165.287 43.1056 166.557 44.1682C168.857 46.0912 172.925 45.6171 177.551 45.9305C182.793 46.2855 186.576 45.1237 191.734 45.5847C195.811 45.949 199.217 45.7231 201.276 47.445C202.859 48.7687 203.714 49.8421 202.716 51.6732C201.383 54.1187 198.289 55.5177 194.01 57.0585C190.805 58.2128 188.154 58.77 184.688 59.3621C166.842 62.4099 161.031 51.8087 143.336 55.6948C136.241 57.2528 130.86 57.8651 126.152 61.5179C122.186 64.5947 121.546 66.6149 122.411 69.6456C123.344 72.9165 127.715 73.528 131.903 75.6123C137.194 78.2454 142.788 78.2386 147.268 81.2774C149.85 83.0282 151.885 83.9535 152.437 86.3615C152.819 88.0256 152.39 89.101 151.568 90.9062C149.767 94.8629 140.896 101.351 140.896 101.351L139.819 100.623C139.819 100.623 148.276 94.9466 150.115 91.0515C150.913 89.3612 151.385 88.347 151.04 86.787C150.514 84.4085 148.22 83.5989 145.614 81.8999C141.066 78.934 135.707 78.83 130.534 76.1778C126.268 73.9908 121.877 73.2918 120.958 69.9019C120.119 66.8066 121.153 64.3637 125.172 61.2254C129.868 57.5587 136.066 56.5288 143.766 54.8802C161.486 51.0861 167.304 61.8776 185.118 58.5476C188.472 57.9205 190.552 57.7211 193.613 56.5553C197.319 55.1437 200.145 53.9685 201.263 51.8185C202.054 50.2967 201.661 49.385 200.54 48.2096C198.686 46.2657 195.169 46.2953 190.883 45.8836C186.201 45.4337 182.741 46.5428 177.896 46.3048C172.905 46.0596 168.492 46.6352 166.018 44.5973C164.622 43.4469 164.646 42.469 164.691 40.9294C164.808 36.92 173.352 33.7864 174.955 33.1832Z" fill="#DDDDDD"/>
<path d="M174.955 33.1832C174.748 33.2463 175.01 33.4546 175.01 33.4546C175.01 33.4546 191.046 27.2707 198.527 29.1774C201.178 29.8532 202.835 30.2845 204.233 31.6415C206.763 34.0975 203.927 36.5977 202.31 39.8467C200.477 43.528 196.48 45.5098 194.887 49.1856C193.629 52.0907 191.577 54.2652 193.842 56.4645C195.583 58.155 197.201 59.2383 201.131 59.441C206.38 59.7118 210.497 58.304 215.445 56.1704C219.153 54.5721 221.469 53.061 224.241 51.02C238.508 40.513 221.284 31.5744 237.061 21.5669C243.387 17.5545 247.11 14.2405 256.248 12.8239C263.946 11.6308 268.062 12.1629 273.366 14.1846C279.091 16.3666 278.158 19.5867 280.091 23.3845C282.533 28.1823 279.85 31.9275 283.443 36.3758C285.514 38.9388 286.288 40.7424 290.567 42.2584C293.524 43.306 295.757 43.5305 299.555 43.8388C307.879 44.5145 324.351 41.6581 324.351 41.6581L323.494 40.5899C323.494 40.5899 308.748 43.5556 300.523 42.9341C296.953 42.6644 294.815 42.4983 292.036 41.5246C287.801 40.0401 287.369 38.1178 285.407 35.5636C281.983 31.1046 284.345 27.4645 281.811 22.7362C279.722 18.8372 280.499 15.5622 274.543 13.3334C269.105 11.2982 264.003 10.8284 256.164 12.0281C247.006 13.4297 242.105 17.0928 235.32 21.4674C219.704 31.5352 237.284 40.5691 222.499 50.9204C219.715 52.8697 218.346 54.1687 214.686 55.6648C210.254 57.4761 206.688 58.8106 202.099 58.5364C198.851 58.3423 197.318 57.6453 195.636 56.3349C192.854 54.1677 194.589 51.825 195.857 48.7576C197.244 45.4062 200.988 43.6155 202.851 40.2558C204.771 36.7948 207.964 34.1115 205.3 31.4845C203.796 30.0016 201.94 29.5523 199.014 28.8497C191.395 27.0202 176.309 32.7709 174.955 33.1832Z" fill="#DDDDDD"/>
<path d="M322.648 50.0289C322.648 50.0289 326.454 51.6949 327.176 57.5809C327.369 59.3115 326.513 60.59 325.287 61.8056C324.031 63.1001 322.173 63.1046 321.05 64.4291C321.826 63.1751 321.6 61.6825 322.927 60.6819C320.945 61.3202 319.923 62.8598 319.658 64.8705C319.421 66.8023 318.565 68.0807 316.436 68.2904C317.52 67.4162 317.154 66.212 317.105 65.016C316.989 66.42 315.91 67.082 314.681 67.3684C313.184 67.754 312.536 68.1618 311.392 69.2999C311.976 67.2445 310.97 66.1297 313.465 65.1596C314.832 64.6379 316.344 63.6687 315.247 61.9675C314.877 64.9577 312.379 64.0162 310.364 64.9457C308.939 65.6252 309.228 66.7478 308.431 67.8153C307.633 68.8829 306.248 69.059 305 69.0529C307.086 68.4704 306.563 66.1205 307.058 64.4609C307.613 62.5375 310.147 62.0994 311.201 60.3748C310.259 58.8369 309.334 60.6976 308.946 61.3246C308.31 62.2902 307.489 63.2244 306.122 62.7108C309.335 61.6799 307.153 57.7999 309.476 56.2678C310.368 55.6806 312.627 56.5893 313.079 55.5392C313.785 53.9383 311.002 54.768 310.407 55.1772C310.563 54.3052 311.249 53.4471 312.109 53.0449C313.212 52.5162 313.989 53.2268 314.95 53.0396C316.23 52.8077 316.352 51.1914 314.92 51.1539C314.389 51.14 313.277 52.0401 312.635 52.2356C313.421 50.6103 315.345 49.0943 317.107 48.7157C319.297 48.2421 320.81 49.2374 322.648 50.0289Z" fill="url(#paint0_linear)"/>
<path d="M323.708 52.086C324.091 52.5159 324.064 52.5414 324.415 53.1001C325.167 54.2695 325.316 55.9617 324.19 56.9305C323.548 57.4658 322.792 57.3158 322.105 57.6957C321.378 58.088 321.345 58.8878 320.957 59.5031C320.924 59.064 320.926 58.7156 320.827 58.2887C320.786 58.0301 320.721 57.7455 320.821 57.5014C320.544 57.963 320.495 58.5046 320.192 58.9659C319.807 59.5297 319.231 59.7043 318.603 59.9041C317.962 60.0909 317.339 60.1617 316.642 60.1543C316.358 60.1513 315.986 60.0829 315.724 60.1833C315.382 60.3346 315.252 60.6558 314.984 60.8853C315.138 59.9964 315.195 59.5454 316.135 59.2972C317.102 59.0493 317.15 58.211 317.782 57.6112C317.238 57.9538 316.547 58.1143 316.176 57.4006C317.323 57.7741 317.797 56.9273 317.955 55.9353C318.124 54.9821 318.094 54.143 318.871 53.4801C318.394 53.4622 318.154 53.9629 317.858 54.2437C317.509 54.5497 317.116 54.6746 316.661 54.7601C316.715 54.7091 316.794 54.6583 316.822 54.607C317.004 54.2863 317.335 54.0704 317.517 53.7497C317.685 53.4417 317.787 53.146 317.917 52.8247C318.176 52.1822 318.846 51.6215 319.429 51.2663C320.397 50.67 322.171 50.8695 323.323 51.7334L323.435 51.825C323.535 51.9035 323.622 51.9947 323.708 52.086Z" fill="#FFC929"/>
<path d="M324.039 52.4365C324.452 52.9282 324.512 53.327 324.498 53.97C324.475 54.6881 323.814 55.195 323.345 55.6668C323.46 55.4512 323.43 55.2381 323.456 54.9993C323.203 55.2791 322.966 55.1692 322.682 55.3317C322.384 55.5074 322.225 55.8722 321.948 56.0554C322.078 55.7445 321.729 55.419 321.954 55.1384C321.65 55.2524 321.758 55.6321 321.549 55.8174C321.368 55.9762 320.969 56.0462 320.768 56.1564C320.79 56.0818 321.32 55.3381 320.919 55.545C320.842 55.5906 320.775 55.8691 320.663 55.9616C320.566 56.0271 320.421 56.0706 320.304 56.1012C320.036 56.1684 319.763 56.1053 319.521 56.228C319.244 56.3702 319.109 56.633 318.966 56.9024C319.12 56.4075 319.025 56.0828 319.456 55.7537C319.665 55.5821 319.751 55.4341 319.899 55.2264C320.026 55.0523 320.192 54.9752 320.36 54.8161C319.829 54.6767 319.727 55.2554 319.287 55.3789C319.537 55.1812 319.462 54.8914 319.543 54.6269C319.63 54.3695 319.848 54.1228 320.104 54.0142C320.29 53.9309 320.774 54.0073 320.747 53.6984C320.721 53.3348 320.203 53.5313 320.05 53.6498C320.145 53.3857 320.363 53.1254 320.672 53.0595C320.94 53.0061 321.211 53.1512 321.341 52.8403C321.115 52.5186 320.793 52.8373 320.486 52.8211C320.924 52.4717 321.126 51.718 321.814 51.8554C321.998 51.8952 322.44 52.3193 322.468 51.9985C322.487 51.7389 322.026 51.5469 321.827 51.5751C322.496 51.3285 323.451 51.7751 323.952 52.3448L324.039 52.4365Z" fill="#F9F079"/>
<path d="M320.242 45.2061C319.687 46.137 319.171 47.0372 318.688 47.9004C318.205 48.7637 320.003 51.624 321.86 53.5763C323.703 55.5129 327.147 58.1884 328.035 57.7508C328.923 57.3132 329.848 56.845 330.807 56.3409L320.242 45.2061Z" fill="url(#paint1_linear)"/>
<path d="M347.449 46.8557C358.763 39.6046 370.104 29.9647 375.395 16.3043L362.561 2.77963C348.644 7.34732 338.42 18.1657 330.587 29.0852L323.066 40.5484C322.375 41.676 321.714 42.7653 321.071 43.8327L332.223 55.5849C333.321 54.9979 334.447 54.3954 335.607 53.7652L347.449 46.8557ZM361.429 16.7059C362.887 18.3037 362.833 20.7526 361.285 22.221C359.739 23.6877 357.287 23.6171 355.769 22.0768C354.31 20.479 354.368 18.0273 355.914 16.5606C357.462 15.0922 359.909 15.1656 361.429 16.7059Z" fill="url(#paint2_linear)"/>
<path d="M336.743 56.8594L335.607 53.7656L347.449 46.8561C347.025 49.1071 346.348 58.051 346.348 58.051L332.882 69.3101L330.407 66.7018L336.743 56.8594Z" fill="url(#paint3_linear)"/>
<path d="M319.35 29.5983C319.35 29.5983 328.316 29.3892 330.587 29.0855L323.066 40.5487L320.036 39.2524L309.875 45.0626L307.4 42.4549L319.35 29.5983Z" fill="url(#paint4_linear)"/>
<path d="M375.973 14.6628C377.427 10.3105 379.134 0.163003 378.992 0.0128993C378.848 -0.138382 368.655 1.06645 364.233 2.29012L375.973 14.6628Z" fill="url(#paint5_linear)"/>
<path d="M320.242 45.2061L330.807 56.3409L332.223 55.5849L321.071 43.8327L320.242 45.2061Z" fill="url(#paint6_linear)"/>
<path d="M362.561 2.77992L375.394 16.3046L375.973 14.6631L364.233 2.29042L362.561 2.77992Z" fill="url(#paint7_linear)"/>
<path d="M361.285 22.2209C362.833 20.7525 362.887 18.3035 361.429 16.7057C359.91 15.1655 357.462 15.0921 355.914 16.5605C354.368 18.0272 354.31 20.4789 355.769 22.0767C357.287 23.6169 359.739 23.6876 361.285 22.2209Z" fill="url(#paint8_linear)"/>
<path d="M55.35 251V229.1H7.95L3.3 217.25L37.35 139.7H63.75L34.05 207.05H55.35V188.15L60.3 174.5H81.3V207.05H91.35V225.05L81.3 229.1V251H55.35Z" fill="#3E404E"/>
<g filter="url(#filter0_d)">
<path d="M187.161 176.508C199.901 205.634 186.618 239.574 157.492 252.314C128.366 265.054 94.4265 251.77 81.6865 222.644C68.9465 193.518 82.23 159.579 111.356 146.839C140.482 134.099 174.421 147.382 187.161 176.508Z" fill="url(#paint9_linear)"/>
<path d="M111.511 182.747C113.472 187.228 111.428 192.449 106.948 194.41C102.467 196.37 97.2454 194.327 95.285 189.846C93.3246 185.366 95.3678 180.144 99.8485 178.184C104.329 176.223 109.551 178.266 111.511 182.747Z" fill="url(#paint10_linear)"/>
<path d="M165.595 159.3C166.72 160.606 166.508 162.313 165.12 163.113C163.732 163.914 161.695 163.504 160.569 162.199C159.444 160.893 159.656 159.186 161.044 158.385C162.432 157.585 164.469 157.994 165.595 159.3Z" fill="url(#paint11_linear)"/>
<path d="M185.932 200.671C187.685 201.281 188.421 203.74 187.577 206.164C186.733 208.588 184.628 210.059 182.876 209.449C181.124 208.839 180.388 206.379 181.232 203.955C182.076 201.531 184.18 200.061 185.932 200.671Z" fill="url(#paint12_linear)"/>
<path d="M132.743 144.096C132.856 145.084 130.88 146.121 128.33 146.413C125.78 146.705 123.621 146.14 123.508 145.152C123.395 144.164 125.371 143.126 127.921 142.835C130.471 142.543 132.63 143.107 132.743 144.096Z" fill="url(#paint13_linear)"/>
<path d="M154.348 232.647C155.585 239.087 150.393 245.498 142.752 246.965C135.112 248.433 127.915 244.402 126.678 237.961C125.441 231.521 130.633 225.111 138.273 223.644C145.914 222.176 153.111 226.207 154.348 232.647Z" fill="url(#paint14_linear)"/>
<path d="M115.002 144.534C115.386 145.32 113.097 147.227 109.889 148.795C106.681 150.362 103.769 150.995 103.385 150.209C103.001 149.423 105.291 147.516 108.498 145.949C111.706 144.381 114.618 143.748 115.002 144.534Z" fill="#C00C14"/>
<path d="M115.506 145.567C116.169 146.923 114.106 149.293 110.898 150.86C107.69 152.427 104.552 152.598 103.89 151.242C103.227 149.886 105.291 147.516 108.498 145.949C111.706 144.382 114.844 144.21 115.506 145.567Z" fill="#C00C14"/>
<path d="M113.166 144.697C113.278 144.925 111.547 146 109.3 147.098C107.054 148.196 105.142 148.9 105.03 148.671C104.918 148.443 106.649 147.368 108.896 146.27C111.142 145.172 113.054 144.468 113.166 144.697Z" fill="#400003"/>
<path d="M74.8689 208.062C76.2307 207.647 78.7066 211.817 80.399 217.375C82.0914 222.933 82.3595 227.775 80.9978 228.189C79.6361 228.604 77.1602 224.435 75.4677 218.877C73.7753 213.318 73.5072 208.477 74.8689 208.062Z" fill="url(#paint15_linear)"/>
<path d="M76.6578 207.517C79.0076 206.801 82.2845 210.727 83.9769 216.285C85.6694 221.843 85.1365 226.929 82.7867 227.644C80.4368 228.36 77.16 224.434 75.4675 218.876C73.7751 213.318 74.308 208.232 76.6578 207.517Z" fill="url(#paint16_linear)"/>
<path d="M74.6577 211.054C75.0539 210.933 76.336 213.991 77.5213 217.883C78.7067 221.776 79.3464 225.03 78.9502 225.15C78.5539 225.271 77.2718 222.213 76.0865 218.32C74.9011 214.428 74.2614 211.174 74.6577 211.054Z" fill="#400104"/>
<path d="M123.42 255.135C123.473 254.381 128.223 253.864 134.029 253.979C139.835 254.094 144.498 254.799 144.445 255.553C144.392 256.307 139.642 256.824 133.836 256.709C128.03 256.594 123.366 255.889 123.42 255.135Z" fill="url(#paint17_linear)"/>
<path d="M123.49 254.145C123.582 252.844 128.363 251.883 134.169 251.998C139.975 252.113 144.607 253.261 144.515 254.562C144.423 255.863 139.642 256.824 133.836 256.709C128.03 256.594 123.398 255.446 123.49 254.145Z" fill="url(#paint18_linear)"/>
<path d="M126.178 255.76C126.193 255.54 129.502 255.428 133.568 255.509C137.635 255.589 140.918 255.833 140.903 256.052C140.887 256.271 137.579 256.384 133.512 256.303C129.446 256.222 126.162 255.979 126.178 255.76Z" fill="#150303"/>
<path d="M183.229 231.873C182.097 231.358 182.885 227.196 184.988 222.577C187.092 217.958 189.714 214.631 190.846 215.146C191.978 215.662 191.19 219.824 189.086 224.443C186.983 229.062 184.36 232.389 183.229 231.873Z" fill="url(#paint19_linear)"/>
<path d="M181.741 231.197C179.789 230.307 179.911 225.842 182.014 221.223C184.118 216.604 187.406 213.581 189.359 214.47C191.312 215.359 191.189 219.825 189.086 224.444C186.982 229.063 183.694 232.086 181.741 231.197Z" fill="url(#paint20_linear)"/>
<path d="M185.096 230.036C184.766 229.886 185.694 227.142 187.167 223.907C188.64 220.672 190.102 218.171 190.431 218.321C190.76 218.471 189.833 221.215 188.359 224.45C186.886 227.685 185.425 230.186 185.096 230.036Z" fill="#130406"/>
<path d="M183.535 167.768C182.895 168.205 180.932 166.44 179.151 163.827C177.369 161.214 176.444 158.742 177.085 158.306C177.725 157.87 179.688 159.634 181.469 162.247C183.25 164.86 184.175 167.332 183.535 167.768Z" fill="url(#paint21_linear)"/>
<path d="M182.694 168.342C181.589 169.095 179.25 167.587 177.469 164.974C175.688 162.361 175.139 159.633 176.244 158.879C177.348 158.126 179.688 159.634 181.469 162.247C183.25 164.86 183.799 167.588 182.694 168.342Z" fill="url(#paint22_linear)"/>
<path d="M183.159 166.179C182.973 166.306 181.811 164.926 180.563 163.096C179.316 161.266 178.455 159.68 178.642 159.553C178.828 159.426 179.99 160.806 181.238 162.636C182.485 164.466 183.346 166.052 183.159 166.179Z" fill="#3D0002"/>
<path d="M147.676 191.832C147.676 194.888 145.198 197.366 142.141 197.366C139.085 197.366 136.607 194.888 136.607 191.832C136.607 188.775 139.085 186.297 142.141 186.297C145.198 186.297 147.676 188.775 147.676 191.832Z" fill="#91080D"/>
<path d="M99.8557 232.273C98.4662 233.47 95.7224 232.563 93.7273 230.247C91.7321 227.931 91.2412 225.084 92.6307 223.886C94.0202 222.689 96.764 223.596 98.7592 225.912C100.754 228.228 101.245 231.076 99.8557 232.273Z" fill="#79080D"/>
<path d="M143.249 154.195C143.249 156.029 140.771 157.516 137.714 157.516C134.657 157.516 132.179 156.029 132.179 154.195C132.179 152.361 134.657 150.874 137.714 150.874C140.771 150.874 143.249 152.361 143.249 154.195Z" fill="#BD0C14"/>
<path d="M175.912 224.222C177.118 225.604 176.228 228.353 173.924 230.363C171.621 232.372 168.776 232.881 167.571 231.499C166.365 230.117 167.255 227.368 169.558 225.358C171.861 223.348 174.706 222.84 175.912 224.222Z" fill="#580508"/>
</g>
<path d="M87.6384 151.719L90.2188 152.723L98.5326 149.712C98.5326 149.712 100.244 151.143 101.256 152.149C102.014 152.904 102.605 153.219 103.12 154.156C103.325 154.53 103.68 154.754 103.55 155.16C103.44 155.501 103.166 155.601 102.833 155.733C102.416 155.897 102.13 155.791 101.686 155.733C100.643 155.596 99.3926 154.586 98.9626 154.873C98.5326 155.16 98.4875 155.842 98.2459 156.736C98.0042 157.631 99.7238 160.094 98.9626 162.04C98.7527 162.577 98.7628 163.075 98.2459 163.33C97.8442 163.528 97.529 163.456 97.0991 163.33C96.3004 163.097 96.1605 162.422 95.6657 161.753C94.7426 160.505 93.9456 158.17 93.9456 158.17C93.9456 158.17 94.4994 159.983 94.6623 161.18C94.7757 162.014 95.0119 162.514 94.8056 163.33C94.7011 163.743 94.7327 164.101 94.3756 164.334C94.1365 164.489 93.9443 164.477 93.6589 164.477C93.3734 164.477 93.2015 164.453 92.9422 164.334C92.4732 164.118 92.3643 163.762 92.0821 163.33C91.6841 162.721 91.6369 162.285 91.3654 161.61C90.7641 160.115 89.9319 157.74 89.9319 157.74C89.9319 157.74 90.2118 160.384 89.9319 162.04C89.8459 162.549 90.0807 163.053 89.6452 163.33C89.4505 163.454 89.3027 163.473 89.0719 163.473C88.8411 163.473 88.7071 163.429 88.4985 163.33C87.9513 163.071 87.9161 162.578 87.6384 162.04C87.2081 161.206 87.0938 160.669 86.9217 159.747C86.6549 158.316 86.5657 157.478 86.6351 156.02C86.6781 155.118 86.7088 154.603 86.9217 153.726C87.118 152.917 87.6384 151.719 87.6384 151.719Z" fill="#C0C0C0"/>
<path d="M89.932 111.583C89.932 111.583 99.0436 101.764 106.56 98.1089C114.587 94.205 128.921 93.3785 128.921 93.3785C128.921 93.3785 134.74 101.807 137.522 107.713C141.703 116.59 144.689 131.795 144.689 131.795L113.297 150.286C113.297 150.286 104.769 140.526 100.396 133.515C95.3735 125.463 89.932 111.583 89.932 111.583Z" fill="#CACACA"/>
<path d="M101.113 96.3887C93.5965 100.044 84.4849 109.863 84.4849 109.863C84.4849 109.863 89.9264 123.743 94.949 131.795C99.3224 138.805 107.85 148.566 107.85 148.566L113.297 150.286C113.297 150.286 104.769 140.526 100.396 133.515C95.3734 125.463 89.932 111.583 89.932 111.583C89.932 111.583 99.0435 101.764 106.56 98.1088C114.587 94.205 128.921 93.3784 128.921 93.3784C128.921 93.3784 134.74 101.807 137.522 107.713C141.384 115.912 144.227 129.512 144.638 131.539L144.689 131.508C144.689 131.508 142.83 117.639 139.242 109.576C136.193 102.723 128.921 93.3784 128.921 93.3784L123.474 91.6583C123.474 91.6583 109.14 92.4849 101.113 96.3887Z" fill="#ACAAAA"/>
<path d="M84.4849 109.863C84.4849 109.863 89.9264 123.743 94.949 131.795C99.3224 138.805 107.85 148.566 107.85 148.566L113.297 150.286C113.297 150.286 104.769 140.526 100.396 133.515C95.3734 125.463 89.932 111.583 89.932 111.583L84.4849 109.863Z" fill="#BBB8B8"/>
<path d="M93.9455 158.17C93.9455 158.17 94.7426 160.506 95.6656 161.754C96.1605 162.423 96.3003 163.097 97.0991 163.33C97.5289 163.456 97.8442 163.528 98.2458 163.33C98.6475 163.132 98.3435 162.711 98.1028 162.47C97.862 162.23 97.543 162.488 97.2427 162.327C96.7345 162.055 96.8294 161.527 96.526 161.037C96.1662 160.456 95.8656 160.194 95.5226 159.603C95.2713 159.17 95.3485 158.759 94.9492 158.457C94.6241 158.211 93.9455 158.17 93.9455 158.17Z" fill="#D6D6D6"/>
<path d="M89.9317 157.74C89.9317 157.74 90.7638 160.115 91.3651 161.61C91.6366 162.285 91.6839 162.721 92.0818 163.33C92.3641 163.762 92.4729 164.118 92.9419 164.334C93.2013 164.453 93.3732 164.477 93.6586 164.477C93.9441 164.477 93.8181 164.134 93.8022 163.904C93.7721 163.467 93.9175 163.396 93.6589 163.044C93.2728 162.517 93.0624 162.616 92.754 162.04C92.3754 161.334 92.0004 160.468 91.6518 159.747C91.3796 159.183 91.6438 158.776 91.2221 158.313C90.9804 158.048 90.48 157.799 89.9317 157.74Z" fill="#D6D6D6"/>
<path d="M86.9217 153.726C86.7088 154.604 86.678 155.118 86.6351 156.02C86.5657 157.478 86.6549 158.316 86.9217 159.747C87.0938 160.669 87.2081 161.206 87.6384 162.04C87.9161 162.578 87.9513 163.071 88.4985 163.33C88.7071 163.429 88.8411 163.474 89.0719 163.474C89.0719 163.474 88.4399 161.576 88.212 160.32C88.031 159.323 87.8612 158.752 87.9253 157.74C87.9872 156.764 88.1266 156.207 88.4985 155.303C88.9593 154.183 90.2188 152.723 90.2188 152.723L87.6384 151.72C87.6384 151.72 87.118 152.918 86.9217 153.726Z" fill="#D6D6D6"/>
<path d="M98.7537 106.747C98.7033 106.434 98.9725 106.17 99.2888 106.195C100.278 106.272 101.097 106.246 102.26 106.136C104.801 105.896 106.188 105.344 108.567 104.416C109.711 103.97 110.34 103.683 111.434 103.126C113.496 102.076 114.593 101.353 116.451 99.9723C118.185 98.6836 119.316 98.0458 120.634 96.4303C120.788 96.2427 121.053 96.1804 121.256 96.313C122.905 97.3916 122.957 99.1824 123.761 100.546C123.761 100.546 120.374 101.802 118.458 103.556C116.382 105.455 114.948 106.161 112.294 107.283C109.795 108.339 107.962 108.805 105.27 109.146C102.927 109.443 100.396 110.866 100.396 110.866C99.5408 109.223 98.9914 108.225 98.7537 106.747Z" fill="url(#paint23_linear)"/>
<path d="M144.259 170.928C144.374 170.266 144.259 169.207 144.259 169.207L154.293 171.788L153.577 174.225C153.577 174.225 157.332 178.268 157.877 181.535C158.164 183.255 157.346 187.125 154.867 187.125C150.423 187.125 148.664 185.115 146.123 182.108C143.855 179.425 141.726 177.176 142.683 173.794C143.03 172.565 144.041 172.187 144.259 170.928Z" fill="#C0C0C0"/>
<path d="M153.577 174.224L154.293 171.787H150.71C150.71 171.787 150.024 173.076 150.137 173.938C150.282 175.048 150.943 175.584 151.857 176.231C152.81 176.907 153.763 176.425 154.724 177.091C155.607 177.704 155.822 178.364 156.444 179.241C157.054 180.103 157.877 181.535 157.877 181.535C157.332 178.268 153.577 174.224 153.577 174.224Z" fill="#9C9C9C"/>
<path d="M144.259 170.928C144.041 172.187 143.03 172.565 142.683 173.794C141.726 177.176 143.855 179.425 146.123 182.108C148.664 185.115 150.423 187.125 154.867 187.125C154.867 187.125 151.779 186.377 150.137 185.262C148.333 184.037 147.565 182.954 146.41 181.105C145.653 179.895 145.125 179.205 144.833 177.808C144.581 176.603 144.438 175.821 144.833 174.655C145.132 173.772 145.751 173.502 146.123 172.648C146.47 171.851 146.696 170.498 146.696 170.498L144.259 169.207C144.259 169.207 144.374 170.266 144.259 170.928Z" fill="#D6D6D6"/>
<path d="M98.8769 107.426C99.7364 107.713 101.612 107.844 103.006 107.713C105.547 107.473 107.049 107.064 109.427 106.136C110.571 105.69 111.2 105.403 112.294 104.846C114.356 103.796 115.74 102.929 117.597 101.549C119.445 100.176 121.582 98.6822 122.299 97.2487C122.586 97.5354 122.894 98.378 123.217 99.5422C123.217 99.5422 121.12 103.093 119.204 104.846C117.128 106.745 115.694 107.451 113.04 108.573C110.541 109.629 108.708 110.095 106.016 110.436C103.673 110.733 99.9955 109.863 99.9955 109.863C99.7083 109.863 99.0196 108.286 98.8769 107.426Z" fill="url(#paint24_linear)"/>
<path d="M155.727 94.5253C155.727 94.5253 156.712 94.4417 157.304 94.2386C157.967 94.0111 158.315 93.7939 158.88 93.3786C159.518 92.9098 159.749 92.5003 160.314 91.9451C162.008 90.2789 164.758 87.7882 164.758 87.7882C164.758 87.7882 165.29 87.5504 165.618 87.6448C165.887 87.7225 166.014 87.8576 166.191 88.0749C166.349 88.2692 166.428 88.4028 166.478 88.6482C166.545 88.982 166.415 89.1775 166.334 89.5083C165.971 91.0018 164.184 92.7408 164.471 92.9485L164.758 93.0919C165.044 93.0919 166.417 91.7252 167.624 91.0851C168.222 90.7682 168.546 90.5364 169.201 90.3684C169.8 90.2148 170.258 89.8912 170.778 90.225C171.118 90.443 171.245 90.6956 171.351 91.0851C171.44 91.4091 171.39 91.6115 171.351 91.9451C171.137 93.7936 167.61 94.6687 167.911 95.242C168.005 95.4207 168.017 95.5818 168.198 95.6721C168.484 95.8154 169.608 95.6898 170.491 95.5287C171.658 95.3159 172.176 94.6237 173.358 94.5253C173.749 94.4928 173.991 94.3993 174.362 94.5253C174.776 94.666 175.132 94.814 175.222 95.242C175.294 95.5886 175.101 95.7892 174.935 96.1021C174.639 96.6618 174.288 96.86 173.788 97.2489C172.998 97.8636 172.422 98.0187 171.495 98.3956C170.148 98.9426 169.184 98.6981 167.911 99.399C167.313 99.7285 166.478 99.7191 166.478 100.402C166.478 101.406 169.34 101.839 169.631 103.556C169.716 104.053 169.926 104.437 169.631 104.846C169.352 105.234 168.956 105.198 168.484 105.276C167.314 105.47 166.757 104.603 165.618 104.273C164.404 103.921 163.72 103.692 162.464 103.556C161.295 103.43 159.454 103.556 159.454 103.556L159.024 96.6755L155.727 94.5253Z" fill="#C0C0C0"/>
<path d="M173.358 94.5253C172.176 94.6236 171.658 95.3158 170.491 95.5287C170.204 95.6721 170.204 95.6727 170.061 95.8154L170.061 95.8154C169.918 95.9581 169.735 96.0475 169.774 96.2454C169.814 96.4434 170.014 96.4642 170.204 96.5321C170.639 96.6874 170.92 96.4105 171.351 96.2454C171.702 96.1112 171.853 95.9289 172.211 95.8154C172.536 95.7125 172.734 95.7221 173.071 95.6721C173.518 95.6057 173.776 95.6207 174.218 95.5287C174.617 95.4456 175.311 95.67 175.221 95.242C175.132 94.814 174.775 94.6659 174.361 94.5253C173.99 94.3992 173.748 94.4928 173.358 94.5253Z" fill="#D6D6D6"/>
<path d="M167.625 91.0851C166.477 91.8019 165.761 92.3752 165.761 92.3752C165.761 92.3752 165.444 92.6398 165.617 92.9486C165.843 93.3512 166.324 93.3721 166.765 93.2353C167.108 93.083 167.284 92.9639 167.625 92.8053C168.011 92.6252 168.262 92.5929 168.628 92.3752C169.14 92.0715 169.271 91.689 169.775 91.3718C170.093 91.1716 170.427 91.2547 170.635 90.9418C170.793 90.7039 171.299 90.5589 170.778 90.2251C170.258 89.8912 169.8 90.2148 169.201 90.3684C168.546 90.5364 168.198 90.7267 167.625 91.0851Z" fill="#D6D6D6"/>
<path d="M157.304 94.2387C156.712 94.4417 156.258 94.1939 155.727 94.5253C154.423 95.3394 157.508 96.9292 159.024 96.6755C159.867 96.5345 160.11 95.8833 160.887 95.5287C161.322 95.3303 161.647 95.3802 162.034 95.0987C162.387 94.8414 162.605 94.651 162.751 94.2387C162.981 93.5857 162.215 93.2028 162.321 92.5185C162.449 91.6887 163.112 91.474 163.611 90.7984C164.063 90.1858 164.229 89.7701 164.758 89.2216C165.255 88.7052 166.367 88.2921 166.191 88.0749C166.014 87.8576 165.887 87.7225 165.618 87.6448C165.29 87.5504 164.758 87.7882 164.758 87.7882C164.758 87.7882 162.008 90.2789 160.314 91.9452C159.749 92.5003 159.518 92.9098 158.88 93.3786C158.315 93.7939 157.967 94.0111 157.304 94.2387Z" fill="#D6D6D6"/>
<path d="M127.456 187.787C127.949 187.093 128.767 186.045 128.767 186.045L134.011 186.916L137.379 185.692L139.692 180.675C139.692 180.675 140.251 182.081 140.566 182.997C140.876 183.896 141.15 184.38 141.294 185.319C141.583 187.189 141.203 188.327 140.566 190.109C139.624 192.747 138.309 193.915 136.342 195.914C134.438 197.849 130.806 200.124 130.806 200.124C130.806 200.124 126.841 202.028 124.98 200.704C123.978 199.991 123.59 199.265 123.232 198.092C122.621 196.092 123.636 194.814 124.397 192.867C125.239 190.711 126.115 189.675 127.456 187.787Z" fill="#C0C0C0"/>
<path d="M140.566 182.997C140.251 182.081 139.692 180.675 139.692 180.675C139.692 180.675 136.615 183.674 137.379 185.692C137.785 186.766 138.993 186.763 139.386 187.842C139.985 189.49 138.917 190.593 138.096 192.142C137.44 193.379 136.882 193.97 135.945 195.009C134.884 196.187 134.406 196.701 133.365 197.733C132.394 198.695 130.806 200.123 130.806 200.123C130.806 200.123 134.438 197.849 136.342 195.914C138.309 193.915 139.624 192.747 140.566 190.109C141.203 188.327 141.583 187.189 141.295 185.319C141.15 184.38 140.876 183.896 140.566 182.997Z" fill="#9C9C9C"/>
<path d="M127.456 187.787C126.115 189.675 125.24 190.711 124.397 192.867C123.636 194.815 122.622 196.092 123.232 198.092C123.59 199.266 124.191 200.313 124.98 200.704C124.909 200.255 124.764 200.492 124.621 199.596C124.479 198.701 124.284 197.847 124.397 196.729C124.534 195.381 124.911 194.662 125.481 193.433C126.093 192.114 126.406 191.283 127.456 190.279C127.922 189.834 128.236 189.641 128.767 189.276C130.618 188.004 134.367 188.701 134.011 186.916C133.605 184.88 128.767 186.045 128.767 186.045C128.767 186.045 127.949 187.093 127.456 187.787Z" fill="#D6D6D6"/>
<path d="M99.2904 108.811C102.874 108.811 103.808 108.845 106.56 108.286C109.336 107.723 110.892 107.228 113.44 105.993C115.774 104.862 117.056 104.09 119.031 102.409C120.719 100.971 122.041 99.5423 122.901 98.2522C123.474 98.9689 123.446 99.2962 124.048 99.6856C124.258 99.8216 124.383 99.8945 124.621 99.9723C125.649 100.309 126.152 99.229 127.201 98.9689C128.51 98.6446 129.297 98.7833 130.642 98.6822C133.549 98.4635 135.187 98.465 138.095 98.2522C140.673 98.0635 142.141 98.1124 144.689 97.6788C148.791 96.9808 150.711 94.7334 154.867 94.5253C155.705 94.4833 156.197 94.343 157.017 94.5253C158.837 94.9299 159.495 96.1776 160.6 97.6788C161.387 98.7475 161.966 99.3789 162.177 100.689C162.424 102.218 162.349 103.405 161.317 104.559C160.159 105.855 158.623 105.042 157.017 105.706C155.207 106.454 154.592 107.721 152.716 108.286C151.473 108.661 150.677 108.392 149.42 108.716C147.165 109.298 146.279 110.579 144.116 111.44C142.586 112.048 141.721 112.427 140.102 112.73C138.942 112.947 138.271 112.943 137.092 113.017C134.857 113.156 134.655 112.443 131.932 113.017C131.932 113.733 131.947 113.993 132.362 114.593C133.266 115.903 133.963 116.492 134.942 117.747C138.474 122.278 138.923 125.996 142.969 130.074C143.468 130.577 143.881 130.742 144.277 131.329C144.826 132.142 144.502 132.892 145.012 133.73C145.847 135.102 146.973 135.32 148.389 136.077C149.44 136.639 150.177 136.657 151.193 137.278C152.408 138.019 152.922 138.679 153.935 139.679C154.774 140.506 155.142 141.069 155.978 141.9C157.152 143.068 158.16 143.381 159.167 144.696C160.05 145.848 160.466 146.603 160.887 147.992C161.231 149.129 161.38 149.817 161.317 151.003C161.243 152.4 160.7 153.098 160.314 154.443C159.447 157.458 159.232 159.234 158.164 162.183C157.097 165.128 155.763 166.493 154.867 169.494C154.439 170.925 155.058 172.16 154.007 173.221C153.059 174.177 152.055 174.199 150.71 174.224C149.379 174.249 148.601 173.963 147.413 173.364C146.588 172.948 146.107 172.679 145.478 172.003C144.718 171.186 143.675 170.601 143.542 169.494C143.112 165.91 143.763 164.678 144.546 161.753C144.933 160.307 145.842 159.666 145.908 158.17C145.96 156.969 145.786 156.242 145.263 155.16C142.539 153.583 140.962 153.583 135.802 152.579C135.515 152.579 134.655 152.579 134.082 155.303C133.795 157.166 134.305 158.994 134.942 161.467C135.531 163.754 135.697 165.081 136.375 167.344C137.286 170.382 138.178 171.954 139.242 174.941C139.759 176.392 140.317 177.143 140.532 178.668C140.689 179.777 140.716 180.431 140.532 181.535C140.203 183.51 139.732 184.741 138.525 186.409C137.898 187.275 137.612 187.924 136.662 188.415C135.613 188.958 134.832 188.678 133.652 188.702C132.531 188.725 131.886 188.768 130.785 188.559C129.863 188.384 129.266 188.372 128.491 187.842C127.77 187.348 127.576 186.826 127.058 186.122C125.44 183.924 124.834 182.379 123.761 179.815C122.387 176.53 121.953 174.546 121.181 171.071C120.86 169.624 120.785 168.791 120.464 167.344C119.835 164.506 120.12 163.884 118.744 161.323C117.946 159.839 116.607 158.216 115.949 156.665C115.314 155.169 115.591 154.037 114.874 152.579C113.948 150.697 114.014 152.579 111.864 148.279C109.935 144.423 107.563 142.832 106.416 138.675C106.218 137.955 106.141 137.542 105.986 136.812C105.798 135.92 105.733 135.412 105.556 134.518C105.066 132.04 104.84 129.214 104.123 128.211C103.845 128.182 103.686 128.197 103.406 128.211C101.113 128.328 103.014 136.795 100.826 141.685C100.417 142.599 99.9474 143.014 99.6793 143.979C99.3048 145.327 99.9738 146.194 99.6793 147.562C99.3527 149.08 98.9834 149.979 97.9592 151.146C97.0576 152.173 96.3916 152.729 95.0923 153.153C93.7086 153.604 92.8141 153.293 91.3654 153.153C90.1195 153.032 89.2936 153.209 88.2118 152.579C87.2876 152.041 86.7577 151.561 86.3484 150.573C85.8985 149.487 86.4749 148.731 86.3484 147.562C86.2314 146.482 85.9476 145.912 85.775 144.839C85.6229 143.893 85.3586 143.351 85.4883 142.402C85.5842 141.7 85.8965 141.37 86.0617 140.682C86.3112 139.642 86.3251 139.028 86.3484 137.958C86.3777 136.611 85.9951 135.865 86.0617 134.518C86.1035 133.672 86.2389 133.208 86.3484 132.368C86.6471 130.075 86.4161 128.71 87.0651 126.491C87.2987 125.692 87.4229 125.235 87.7818 124.484C88.1504 123.713 88.4544 123.331 88.9286 122.621C89.5063 121.754 89.9353 121.342 90.5053 120.47C91.7389 118.585 91.894 117.222 93.0855 115.31C93.6603 114.388 93.9552 113.842 94.6623 113.017C95.8794 111.596 96.573 110.455 98.3892 110.006C98.7198 109.925 98.9983 110.093 99.2493 109.863C99.5411 109.596 99.1831 109.192 99.2904 108.811Z" fill="url(#paint25_linear)"/>
<path d="M144.278 131.329C143.882 130.742 143.468 130.577 142.97 130.075C138.924 125.996 138.475 122.278 134.943 117.747C133.964 116.492 133.267 115.903 132.363 114.593C131.948 113.993 131.933 113.017 131.933 113.017C131.933 113.017 130.497 112.71 129.782 112.157C128.182 110.919 128.778 107.139 128.492 107.14C125.444 107.14 128.941 111.883 129.496 114.88C129.829 116.683 129.964 117.713 130.499 119.467C131.456 122.605 132.294 124.314 134.083 127.064C136.136 130.221 137.24 132.405 140.533 134.231C143.289 135.761 149.807 136.834 148.39 136.077C146.974 135.32 145.848 135.102 145.013 133.73C144.503 132.892 144.827 132.142 144.278 131.329Z" fill="url(#paint26_linear)"/>
<path d="M131.932 113.017C134.655 112.443 134.857 113.156 137.092 113.017C139.327 112.877 134.662 112.449 133.365 111.583C132.41 110.946 131.978 110.435 131.215 109.576C130.389 108.647 128.491 107.14 128.491 107.14C128.491 107.14 128.433 108.744 128.635 109.576C128.869 110.54 128.768 111.285 129.495 112.013C130.186 112.705 131.932 113.017 131.932 113.017Z" fill="url(#paint27_linear)"/>
<path d="M135.802 152.58C140.963 153.583 142.539 153.583 145.263 155.16C145.786 156.242 145.961 156.969 145.908 158.17C145.842 159.666 144.934 160.307 144.546 161.754C143.763 164.678 143.113 165.91 143.543 169.494C143.676 170.601 144.719 171.187 145.478 172.003C146.237 172.819 146.535 171.418 146.553 170.784C146.572 170.129 145.803 170.064 145.478 169.494C144.806 168.314 144.883 167.408 144.976 166.054C145.099 164.269 145.985 163.45 146.553 161.754C147.239 159.705 148.491 158.58 148.13 156.45C147.836 154.718 147.163 153.732 145.836 152.58C144.192 151.152 142.709 150.783 140.533 150.859C138.568 150.929 136.232 151.576 135.802 152.58Z" fill="#B26F34"/>
<path d="M114.149 119.181L114.722 118.75C114.722 118.75 114.921 121.022 114.865 122.477C114.81 123.941 114.851 124.799 114.435 126.204C113.888 128.055 112.759 128.73 111.999 130.505C111.532 131.595 110.995 133.372 110.995 133.372C110.995 133.372 110.098 129.588 110.565 128.498C111.325 126.723 112.455 126.049 113.002 124.198C113.417 122.793 113.376 121.935 113.432 120.471C114.149 119.181 114.149 119.181 114.149 119.181Z" fill="#D18643"/>
<path d="M99.2493 109.863C98.9983 110.093 98.7198 109.925 98.3892 110.006C96.573 110.455 95.8794 111.596 94.6623 113.017C93.9552 113.842 93.6603 114.388 93.0855 115.31C91.894 117.222 91.7389 118.585 90.5053 120.47C89.9353 121.342 89.5063 121.754 88.9286 122.621C88.4544 123.332 88.1504 123.713 87.7818 124.484C87.4229 125.235 87.2987 125.692 87.0651 126.491C86.4161 128.71 86.6471 130.075 86.3484 132.368C86.2389 133.208 86.1035 133.672 86.0617 134.518C85.9951 135.865 86.3777 136.611 86.3484 137.958C86.3251 139.028 86.3112 139.642 86.0617 140.682C85.8965 141.37 85.5842 141.7 85.4883 142.402C85.3586 143.351 85.6229 143.893 85.775 144.839C85.9476 145.912 86.2314 146.482 86.3484 147.562C86.4749 148.731 85.8985 149.487 86.3484 150.573C86.7577 151.561 87.2876 152.041 88.2118 152.579C89.2936 153.209 90.1195 153.032 91.3654 153.153C92.6113 153.274 91.57 147.449 92.0821 143.835C92.7262 139.291 93.4113 136.785 94.6623 132.368C95.8878 128.042 96.6596 125.624 98.3892 121.474C100.344 116.783 108.958 111.817 104.266 109.863H99.2493Z" fill="#E5A064"/>
<path d="M130.785 188.559C131.886 188.768 133.652 188.702 133.652 188.702C136.503 187.724 131.837 184.36 130.785 181.535C129.834 178.98 129.276 177.552 128.492 174.941C127.859 172.834 128.066 171.449 127.058 169.494C126.253 167.931 125.159 167.463 124.335 165.91C122.888 163.185 123.043 161.242 122.758 158.17C122.515 155.55 122.758 154.064 122.758 151.433C122.758 149.361 122.937 148.192 122.758 146.129C122.606 144.378 123.202 143.005 122.041 141.685C121.114 140.631 120.146 131.33 118.744 131.252C117.135 131.163 116.171 131.729 114.874 132.685C112.595 134.365 109.714 143.979 111.864 148.279C114.014 152.579 113.948 150.697 114.874 152.579C115.591 154.037 115.314 155.169 115.949 156.665C116.608 158.216 117.946 159.839 118.744 161.323C120.12 163.883 119.836 164.506 120.464 167.344C120.785 168.791 120.86 169.624 121.181 171.071L121.203 171.171C121.961 174.585 122.4 176.562 123.761 179.815C124.834 182.379 125.39 183.899 127.058 186.122C127.583 186.821 127.77 187.348 128.492 187.842C129.266 188.372 129.863 188.384 130.785 188.559Z" fill="#E5A064"/>
<path d="M115.557 109.297L116.045 108.996C116.045 108.996 118.616 112.265 120.06 114.499C122.755 118.671 123.396 121.502 125.794 125.851C127.092 128.206 127.941 129.458 129.235 131.814C131.134 135.273 132.695 137.035 133.822 140.816C134.834 144.212 134.969 149.818 134.969 149.818L134.481 150.119C134.481 150.119 134.346 144.514 133.334 141.117C132.207 137.336 130.646 135.574 128.747 132.116C127.453 129.759 126.604 128.507 125.306 126.153C122.909 121.803 122.267 118.972 119.572 114.8C118.128 112.566 115.557 109.297 115.557 109.297Z" fill="url(#paint28_linear)"/>
<path d="M123.761 99.5423C123.761 99.5423 124.193 99.8154 124.478 99.915C125.051 100.116 125.029 100.029 125.338 99.9723C125.911 99.829 126.165 99.3537 126.772 99.1122C127.15 98.9615 127.376 98.909 127.775 98.8255C128.489 98.6761 128.91 98.7292 129.638 98.6822C130.98 98.5956 131.735 98.5991 133.079 98.5389C134.254 98.4861 134.914 98.4634 136.089 98.3955C137.658 98.3048 138.534 98.2085 140.102 98.1088C141.054 98.0483 142.539 97.9655 142.539 97.9655C142.8 98.2358 142.857 98.4674 142.969 98.8255C143.422 100.263 142.614 101.355 141.536 102.409C140.321 103.598 139.068 103.505 137.379 103.699C135.192 103.951 133.978 103.207 131.789 102.982C127.828 102.577 121.611 102.409 121.611 102.409L122.901 100.976L123.761 99.5423Z" fill="#E49046"/>
<path d="M99.3929 109.576C99.3929 109.576 108.218 110.063 113.369 108C118.326 106.014 123.847 99.5424 123.847 99.5424C123.975 99.6432 124.05 99.6954 124.191 99.7803C124.191 99.7803 118.603 106.357 113.727 108.43C108.442 110.677 99.2493 109.863 99.2493 109.863C99.3514 109.768 99.3724 109.703 99.3929 109.576Z" fill="url(#paint29_linear)"/>
<path d="M99.3929 109.576C99.3929 109.576 108.218 110.063 113.369 108C118.326 106.014 123.847 99.5424 123.847 99.5424C123.975 99.6432 124.05 99.6954 124.191 99.7803C124.191 99.7803 118.603 106.357 113.727 108.43C108.442 110.677 99.2493 109.863 99.2493 109.863C99.3514 109.768 99.3724 109.703 99.3929 109.576Z" fill="url(#paint30_linear)"/>
<path d="M102.977 118.75H103.263C103.263 118.75 104.515 121.834 104.553 123.911C104.585 125.606 103.837 128.194 103.837 128.194C103.559 128.203 103.672 128.203 103.55 128.203C103.55 128.203 104.321 125.521 104.267 123.768C104.204 121.745 102.977 118.75 102.977 118.75Z" fill="url(#paint31_linear)"/>
<path d="M81.328 82.3692C81.7261 80.4927 82.1885 79.4621 83.1676 77.7822C84.0903 76.1994 84.7894 75.3941 86.0804 74.0553C87.9027 72.1656 89.1333 71.2391 91.4461 69.8983C93.678 68.6045 95.0783 68.0698 97.5783 67.3181C100.306 66.4981 101.921 66.135 104.784 66.0281C107.064 65.9428 108.371 66.0422 110.609 66.4581C111.948 66.7069 112.723 66.8234 113.982 67.3181C115.194 67.7945 115.846 68.1542 116.895 68.8949C119.572 70.7855 120.304 72.6813 121.8 75.4887C122.579 76.9494 122.923 77.8145 123.487 79.359C124.069 80.9528 124.429 81.8531 124.713 83.516C125.12 85.8929 125.384 87.3557 124.713 89.6798C124.169 91.5652 123.467 92.5292 122.26 94.1234C121.183 95.5467 120.463 96.2929 119.041 97.4203C117.279 98.8172 116.014 99.2597 113.982 100.287C111.484 101.55 110.092 102.341 107.39 103.154C103.481 104.331 100.973 105.283 96.9651 104.444C94.8707 104.006 93.7243 103.503 91.906 102.437C90.4642 101.592 89.7546 100.965 88.5333 99.8572C85.9462 97.5096 84.6227 95.9174 83.1676 92.8333C81.38 89.0443 80.4661 86.4314 81.328 82.3692Z" fill="url(#paint32_linear)"/>
<path d="M83.8867 90.9697L90.9105 102.437C90.9105 102.437 88.7968 102.542 87.6136 102.007C86.2784 101.404 85.7494 100.614 84.89 99.427C84.0529 98.2711 83.6693 97.5121 83.3132 96.1301C82.8524 94.3412 83.8867 90.9697 83.8867 90.9697Z" fill="#B7B6B2"/>
<path d="M120.464 76.4641C120.464 76.4641 123.382 77.4852 124.166 78.069C124.834 78.5658 125.139 78.953 125.6 79.6457C126.326 80.7366 126.555 81.5029 126.747 82.7993C126.886 83.7407 126.886 84.2947 126.747 85.2361C126.555 86.5325 124.166 90.5118 124.166 90.5118L120.464 76.4641Z" fill="#B7B7C3"/>
<g filter="url(#filter1_f)">
<path d="M123.306 79.3795L123.943 78.929C123.943 78.929 124.567 79.916 124.898 80.5808C125.351 81.4875 125.558 82.021 125.854 82.9835C125.996 83.448 126.244 83.7061 126.172 84.1849C126.101 84.653 125.535 85.2361 125.535 85.2361C125.535 85.2361 125.212 83.7543 124.898 82.8334C124.422 81.4329 123.306 79.3795 123.306 79.3795Z" fill="#62635E" fill-opacity="0.5"/>
</g>
<path d="M83.6 84.6627C83.9723 82.7861 84.4046 81.7555 85.3201 80.0757C86.1828 78.4928 86.8365 77.6876 88.0437 76.3488C89.7475 74.459 90.8982 73.5325 93.0607 72.1918C95.1476 70.898 96.4569 70.3633 98.7944 69.6116C101.345 68.7915 102.855 68.4285 105.532 68.3215C107.664 68.2363 108.886 68.3357 110.979 68.7515C112.231 69.0003 112.955 69.1169 114.132 69.6116C115.265 70.0879 115.875 70.4477 116.856 71.1884C119.359 73.079 120.044 74.9747 121.443 77.7822C122.171 79.2429 122.492 80.1079 123.02 81.6525C123.564 83.2462 123.9 84.1465 124.166 85.8094C124.546 88.1864 124.793 89.6492 124.166 91.9732C123.658 93.8586 123.001 94.8226 121.873 96.4169C120.866 97.8401 120.192 98.5863 118.863 99.7138C117.215 101.111 116.032 101.553 114.132 102.581C111.797 103.843 110.496 104.634 107.968 105.448C104.313 106.624 101.968 107.576 98.2211 106.738C96.2628 106.299 95.1909 105.797 93.4907 104.731C92.1426 103.886 91.4791 103.259 90.3372 102.151C87.9182 99.803 86.6806 98.2109 85.3201 95.1268C83.6487 91.3377 82.7941 88.7248 83.6 84.6627Z" fill="url(#paint33_linear)"/>
<path d="M89.0473 87.2429C90.3373 85.0927 90.8452 84.3556 92.3442 82.7992C94.0608 81.017 95.2428 80.2078 97.3612 78.9289C99.4197 77.6863 100.692 77.1705 102.952 76.3488C106.105 75.202 107.682 74.9153 110.262 74.9153C112.086 74.9154 113.307 76.0502 114.419 77.4955C115.852 79.359 116.177 79.7859 117.286 81.9392C118.171 83.6581 119.149 86.5262 119.149 86.5262C119.149 86.5262 119.823 88.9627 119.149 90.2531C117.429 93.55 114.377 96.1885 110.262 98.567C105.968 101.049 104.672 102.007 98.0779 101.721C94.9243 101.004 90.1037 96.3582 89.0473 90.8265C88.8258 89.6666 88.4397 88.2555 89.0473 87.2429Z" fill="url(#paint34_linear)"/>
<path d="M95.2109 80.2192C97.2873 78.6716 98.708 77.9434 101.088 76.9223C103.399 75.9308 104.756 75.3674 107.252 75.0588C108.142 74.9487 109.545 74.9155 109.545 74.9155C109.545 74.9155 104.213 80.4973 102.378 84.9495C100.354 89.8609 100.515 98.4238 100.515 98.4238L94.4941 98.9972C94.4941 98.9972 89.1613 89.8434 90.0506 86.0963C90.3372 84.8886 91.1496 83.9635 92.2006 82.7994C93.2342 81.6546 93.9742 81.1409 95.2109 80.2192Z" fill="url(#paint35_linear)"/>
<path fill-rule="evenodd" clip-rule="evenodd" d="M91.9057 82.5624C90.3508 84.1852 89.8239 84.9539 88.4859 87.1958C87.9254 88.1348 88.1802 89.4023 88.405 90.5221C88.433 90.6615 88.4605 90.7986 88.4859 90.9325C89.5817 96.7004 94.5822 101.545 97.8537 102.292C104.368 102.577 105.898 101.684 109.877 99.3622L110.493 99.0035C114.761 96.5235 117.927 93.7723 119.711 90.3346C120.41 88.9891 119.711 86.4485 119.711 86.4485C119.711 86.4485 118.697 83.458 117.778 81.6656C116.628 79.4204 116.292 78.9753 114.805 77.0322C113.651 75.5252 112.384 74.3419 110.493 74.3419C107.816 74.3419 106.18 74.6408 102.909 75.8365C100.565 76.6933 99.2454 77.2311 97.1101 78.5269C94.9126 79.8603 93.6866 80.7041 91.9057 82.5624ZM92.3439 82.7991C90.8449 84.3555 90.3371 85.0926 89.047 87.2428C88.5069 88.1431 88.7522 89.3584 88.9689 90.4321C88.9958 90.566 89.0223 90.6978 89.047 90.8264C90.1036 96.3581 94.9241 101.004 98.0776 101.72C104.358 101.994 105.833 101.137 109.669 98.9109C109.86 98.7997 110.057 98.685 110.262 98.5669C114.377 96.1885 117.429 93.5499 119.149 90.253C119.822 88.9626 119.149 86.526 119.149 86.526C119.149 86.526 118.171 83.658 117.286 81.939C116.177 79.7858 115.852 79.3589 114.419 77.4954C113.307 76.0501 112.085 74.9152 110.262 74.9152C107.682 74.9152 106.105 75.2019 102.951 76.3486C100.692 77.1704 99.4195 77.6862 97.3609 78.9288C95.2427 80.2077 94.0607 81.0169 92.3439 82.7991Z" fill="url(#paint36_linear)"/>
<path d="M153.845 155.456C155.051 154.319 156.399 152.006 156.399 152.006C156.399 152.006 156.115 152.903 155.888 153.459C155.364 154.741 154.891 155.339 153.845 156.182C152.804 157.022 150.952 157.453 150.952 157.453C150.952 157.453 152.837 156.407 153.845 155.456Z" fill="#AC7341"/>
<ellipse rx="2.85132" ry="2.84917" transform="matrix(0.777144 -0.629323 0.629318 0.777148 122.589 109.763)" fill="#59C7EA"/>
<path d="M120.844 112.01L121.064 111.015L121.516 111.014L121.757 110.367L122.305 110.271L121.701 109.804L123.815 109.795L122.62 109.373L122.097 108.146L123.444 108.393L123.649 108.001L125.017 108.231L125.452 108.939L125.618 109.725L125.066 111.405L123.996 112.359L122.669 112.739L121.167 112.409L120.844 112.01Z" fill="#DBDBDB"/>
<path fill-rule="evenodd" clip-rule="evenodd" d="M123.86 109.793L122.264 109.808L121.789 109.82L122.36 110.264L121.951 110.456L121.64 111.144L121.13 111.214L120.823 112.113L120.894 110.712L121.438 110.895L121.499 109.582L122.163 109.684L122.14 109.063L121.902 107.87L122.502 107.965L123.294 108.273L123.368 107.797C124.432 108.052 124.982 108.197 125.017 108.231C125.052 108.265 124.608 108.229 123.683 108.123L124.207 108.886L123.181 108.693L122.243 108.291L122.495 108.921L123.445 109.13L122.689 109.393L123.86 109.793Z" fill="white"/>
<path fill-rule="evenodd" clip-rule="evenodd" d="M121.406 109.523C121.406 109.523 121.015 109.599 120.848 109.765C120.68 109.93 120.589 110.004 120.589 110.004C120.589 110.004 120.806 110.16 121.003 110.181C121.201 110.175 121.183 110.216 121.183 110.216C120.687 112.546 122.355 113.619 124.371 111.986C124.371 111.986 123.585 111.788 123.232 111.587C122.789 111.321 122.955 110.811 122.955 110.811C122.955 110.811 123.239 110.564 123.819 110.616C124.095 110.641 124.322 110.489 124.338 110.463C124.378 110.401 124.297 110.226 124.297 110.226C124.297 110.226 124.399 110.203 124.435 110.024C124.47 109.844 124.366 109.567 124.366 109.567C124.366 109.567 123.884 109.505 123.705 109.47C123.525 109.434 123.253 109.373 123.084 109.239C122.915 109.104 122.359 108.942 122.359 108.942C120.992 108.328 120.266 109.02 120.036 109.722C119.936 110.068 119.964 110.581 120.631 110.807C120.25 110.399 120.234 110.143 120.265 109.984C120.37 109.448 120.956 109.105 121.406 109.523Z" fill="#BC0624"/>
<g filter="url(#filter2_i)">
<path d="M120.036 109.722C120.239 109.02 120.953 108.499 121.866 108.767C121.866 108.767 121.529 108.94 121.444 109.144C121.387 109.281 121.406 109.523 121.406 109.523C120.955 109.105 120.37 109.448 120.265 109.983C120.234 110.142 120.25 110.399 120.631 110.807C119.964 110.581 119.936 110.067 120.036 109.722Z" fill="#7B5C46"/>
<path d="M120.036 109.722C120.239 109.02 120.953 108.499 121.866 108.767C121.866 108.767 121.529 108.94 121.444 109.144C121.387 109.281 121.406 109.523 121.406 109.523C120.955 109.105 120.37 109.448 120.265 109.983C120.234 110.142 120.25 110.399 120.631 110.807C119.964 110.581 119.936 110.067 120.036 109.722Z" fill="url(#paint37_linear)"/>
</g>
<path d="M124.209 109.724C124.197 109.709 124.195 109.689 124.203 109.672L124.232 109.608C124.237 109.596 124.245 109.586 124.255 109.578C124.272 109.564 124.295 109.558 124.317 109.56L124.366 109.567L124.385 109.595C124.39 109.602 124.393 109.61 124.396 109.619C124.415 109.681 124.368 109.744 124.303 109.743L124.247 109.743C124.233 109.742 124.219 109.736 124.209 109.724Z" fill="#1C1C21"/>
<mask id="mask0" mask-type="alpha" maskUnits="userSpaceOnUse" x="119" y="108" width="3" height="3">
<path d="M120.036 109.721C120.239 109.02 120.953 108.499 121.866 108.767L121.406 109.523C120.955 109.105 120.37 109.448 120.265 109.983C120.234 110.142 120.25 110.399 120.631 110.807C119.964 110.581 119.936 110.067 120.036 109.721Z" fill="#7B5C46"/>
<path d="M120.036 109.721C120.239 109.02 120.953 108.499 121.866 108.767L121.406 109.523C120.955 109.105 120.37 109.448 120.265 109.983C120.234 110.142 120.25 110.399 120.631 110.807C119.964 110.581 119.936 110.067 120.036 109.721Z" fill="url(#paint38_linear)"/>
</mask>
<g mask="url(#mask0)">
<path d="M121.492 108.688C121.271 109.03 121.193 109.199 121.253 109.411" stroke="#372620" stroke-width="0.1" stroke-miterlimit="2.6131"/>
<path d="M121.492 108.688C121.271 109.03 121.193 109.199 121.253 109.411" stroke="url(#paint39_linear)" stroke-width="0.1" stroke-miterlimit="2.6131"/>
<path d="M121.066 108.72C121.016 108.954 120.952 109.115 121.044 109.345" stroke="#372620" stroke-width="0.1" stroke-miterlimit="2.6131"/>
<path d="M121.066 108.72C121.016 108.954 120.952 109.115 121.044 109.345" stroke="url(#paint40_linear)" stroke-width="0.1" stroke-miterlimit="2.6131"/>
<path d="M120.62 108.916C120.649 109.112 120.692 109.207 120.823 109.363" stroke="#372620" stroke-width="0.1" stroke-miterlimit="2.6131"/>
<path d="M120.62 108.916C120.649 109.112 120.692 109.207 120.823 109.363" stroke="url(#paint41_linear)" stroke-width="0.1" stroke-miterlimit="2.6131"/>
<path d="M120.347 109.135C120.441 109.298 120.488 109.35 120.631 109.459" stroke="#372620" stroke-width="0.1" stroke-miterlimit="2.6131"/>
<path d="M120.347 109.135C120.441 109.298 120.488 109.35 120.631 109.459" stroke="url(#paint42_linear)" stroke-width="0.1" stroke-miterlimit="2.6131"/>
<path d="M120.191 109.337C120.264 109.478 120.328 109.536 120.469 109.608" stroke="#372620" stroke-width="0.1" stroke-miterlimit="2.6131"/>
<path d="M120.191 109.337C120.264 109.478 120.328 109.536 120.469 109.608" stroke="url(#paint43_linear)" stroke-width="0.1" stroke-miterlimit="2.6131"/>
<path d="M120.05 109.604C120.025 109.653 120.363 109.87 120.335 109.797" stroke="#372620" stroke-width="0.1" stroke-miterlimit="2.6131"/>
<path d="M120.05 109.604C120.025 109.653 120.363 109.87 120.335 109.797" stroke="url(#paint44_linear)" stroke-width="0.1" stroke-miterlimit="2.6131"/>
<path d="M119.974 109.91C120.083 109.982 120.149 110.008 120.276 110.02" stroke="#372620" stroke-width="0.1" stroke-miterlimit="2.6131"/>
<path d="M119.974 109.91C120.083 109.982 120.149 110.008 120.276 110.02" stroke="url(#paint45_linear)" stroke-width="0.1" stroke-miterlimit="2.6131"/>
</g>
<path d="M124.371 111.986C122.314 112.401 121.974 110.858 122.061 110.035C122.025 110.377 122.281 110.679 122.424 110.783C122.549 110.904 122.821 110.877 122.946 110.845C122.873 111.166 123.047 111.425 123.153 111.513C123.299 111.634 124.371 111.986 124.371 111.986Z" fill="#8F0018"/>
<g filter="url(#filter3_i)">
<path fill-rule="evenodd" clip-rule="evenodd" d="M122.951 109.613C122.951 109.613 122.809 109.549 122.747 109.588C122.685 109.627 122.687 109.671 122.642 109.708C122.597 109.745 122.563 109.749 122.563 109.749C122.563 109.749 122.674 109.804 122.768 109.767C122.862 109.731 122.933 109.665 122.933 109.665L122.951 109.613Z" fill="#A4001B"/>
</g>
<g filter="url(#filter4_i)">
<path fill-rule="evenodd" clip-rule="evenodd" d="M123.783 110.322C123.783 110.322 123.799 110.278 123.978 110.248C124.158 110.218 124.296 110.226 124.296 110.226" fill="#AD0420"/>
</g>
<path d="M121.183 110.217C121.298 110.252 121.38 110.24 121.472 110.209C121.362 110.285 121.262 110.316 121.168 110.288C121.172 110.268 121.178 110.237 121.183 110.217Z" fill="url(#paint46_linear)" fill-opacity="0.3"/>
<g filter="url(#filter5_i)">
<path d="M120.733 110.09C120.733 110.09 120.766 110.106 120.875 109.985C120.984 109.864 121.079 109.776 121.248 109.766C121.267 109.765 121.553 109.837 121.561 109.596C121.586 109.62 121.499 109.899 121.614 110.084C121.434 110.334 121.183 110.217 121.183 110.217C121.183 110.217 121.153 110.185 121.004 110.181C120.855 110.177 120.733 110.09 120.733 110.09Z" fill="#AD0420"/>
</g>
<g filter="url(#filter6_i)">
<path d="M122.721 109.664C122.777 109.58 122.873 109.62 122.873 109.62C122.846 109.607 122.757 109.655 122.774 109.695C122.786 109.723 122.864 109.664 122.869 109.658C122.866 109.664 122.788 109.742 122.747 109.75C122.706 109.757 122.629 109.748 122.629 109.748C122.666 109.745 122.711 109.679 122.721 109.664Z" fill="#810016"/>
</g>
<path fill-rule="evenodd" clip-rule="evenodd" d="M124.552 112.187C125.892 111.102 126.099 109.138 125.015 107.799C123.931 106.46 121.966 106.254 120.626 107.339C119.286 108.424 119.079 110.389 120.163 111.728C121.247 113.066 123.212 113.272 124.552 112.187ZM124.382 111.977C125.606 110.986 125.795 109.192 124.805 107.969C123.815 106.746 122.02 106.558 120.796 107.549C119.572 108.54 119.383 110.335 120.373 111.558C121.363 112.78 123.158 112.968 124.382 111.977Z" fill="#BC0624"/>
<path fill-rule="evenodd" clip-rule="evenodd" d="M124.552 112.187C125.892 111.102 126.099 109.138 125.015 107.799C123.931 106.46 121.966 106.254 120.626 107.339C119.286 108.424 119.079 110.389 120.163 111.728C121.247 113.066 123.212 113.272 124.552 112.187ZM124.382 111.977C125.606 110.986 125.795 109.192 124.805 107.969C123.815 106.746 122.02 106.558 120.796 107.549C119.572 108.54 119.383 110.335 120.373 111.558C121.363 112.78 123.158 112.968 124.382 111.977Z" fill="url(#paint47_linear)"/>
<g filter="url(#filter7_d)">
<path d="M229.35 251V229.1H181.95L177.3 217.25L211.35 139.7H237.75L208.05 207.05H229.35V188.15L234.3 174.5H255.3V207.05H265.35V225.05L255.3 229.1V251H229.35Z" fill="#3E404E"/>
</g>
<defs>
<filter id="filter0_d" x="63" y="138" width="129" height="123.153" filterUnits="userSpaceOnUse" color-interpolation-filters="sRGB">
<feFlood flood-opacity="0" result="BackgroundImageFix"/>
<feColorMatrix in="SourceAlpha" type="matrix" values="0 0 0 0 0 0 0 0 0 0 0 0 0 0 0 0 0 0 127 0"/>
<feOffset dx="-7"/>
<feGaussianBlur stdDeviation="2"/>
<feColorMatrix type="matrix" values="0 0 0 0 0 0 0 0 0 0 0 0 0 0 0 0 0 0 0.4 0"/>
<feBlend mode="normal" in2="BackgroundImageFix" result="effect1_dropShadow"/>
<feBlend mode="normal" in="SourceGraphic" in2="effect1_dropShadow" result="shape"/>
</filter>
<filter id="filter1_f" x="119.306" y="74.929" width="10.8785" height="14.3071" filterUnits="userSpaceOnUse" color-interpolation-filters="sRGB">
<feFlood flood-opacity="0" result="BackgroundImageFix"/>
<feBlend mode="normal" in="SourceGraphic" in2="BackgroundImageFix" result="shape"/>
<feGaussianBlur stdDeviation="2" result="effect1_foregroundBlur"/>
</filter>
<filter id="filter2_i" x="119.993" y="108.695" width="1.87312" height="6.11177" filterUnits="userSpaceOnUse" color-interpolation-filters="sRGB">
<feFlood flood-opacity="0" result="BackgroundImageFix"/>
<feBlend mode="normal" in="SourceGraphic" in2="BackgroundImageFix" result="shape"/>
<feColorMatrix in="SourceAlpha" type="matrix" values="0 0 0 0 0 0 0 0 0 0 0 0 0 0 0 0 0 0 127 0" result="hardAlpha"/>
<feOffset dy="4"/>
<feGaussianBlur stdDeviation="2"/>
<feComposite in2="hardAlpha" operator="arithmetic" k2="-1" k3="1"/>
<feColorMatrix type="matrix" values="0 0 0 0 0 0 0 0 0 0 0 0 0 0 0 0 0 0 0.35 0"/>
<feBlend mode="normal" in2="shape" result="effect1_innerShadow"/>
</filter>
<filter id="filter3_i" x="122.563" y="109.575" width="0.387891" height="0.704977" filterUnits="userSpaceOnUse" color-interpolation-filters="sRGB">
<feFlood flood-opacity="0" result="BackgroundImageFix"/>
<feBlend mode="normal" in="SourceGraphic" in2="BackgroundImageFix" result="shape"/>
<feColorMatrix in="SourceAlpha" type="matrix" values="0 0 0 0 0 0 0 0 0 0 0 0 0 0 0 0 0 0 127 0" result="hardAlpha"/>
<feOffset dy="0.5"/>
<feGaussianBlur stdDeviation="0.25"/>
<feComposite in2="hardAlpha" operator="arithmetic" k2="-1" k3="1"/>
<feColorMatrix type="matrix" values="0 0 0 0 0 0 0 0 0 0 0 0 0 0 0 0 0 0 0.05 0"/>
<feBlend mode="normal" in2="shape" result="effect1_innerShadow"/>
</filter>
<filter id="filter4_i" x="123.781" y="110.03" width="0.515152" height="0.584436" filterUnits="userSpaceOnUse" color-interpolation-filters="sRGB">
<feFlood flood-opacity="0" result="BackgroundImageFix"/>
<feBlend mode="normal" in="SourceGraphic" in2="BackgroundImageFix" result="shape"/>
<feColorMatrix in="SourceAlpha" type="matrix" values="0 0 0 0 0 0 0 0 0 0 0 0 0 0 0 0 0 0 127 0" result="hardAlpha"/>
<feOffset dy="0.1"/>
<feGaussianBlur stdDeviation="0.05"/>
<feComposite in2="hardAlpha" operator="arithmetic" k2="-1" k3="1"/>
<feColorMatrix type="matrix" values="0 0 0 0 0 0 0 0 0 0 0 0 0 0 0 0 0 0 0.25 0"/>
<feBlend mode="normal" in2="shape" result="effect1_innerShadow"/>
</filter>
<filter id="filter5_i" x="120.733" y="109.596" width="0.880877" height="1.1482" filterUnits="userSpaceOnUse" color-interpolation-filters="sRGB">
<feFlood flood-opacity="0" result="BackgroundImageFix"/>
<feBlend mode="normal" in="SourceGraphic" in2="BackgroundImageFix" result="shape"/>
<feColorMatrix in="SourceAlpha" type="matrix" values="0 0 0 0 0 0 0 0 0 0 0 0 0 0 0 0 0 0 127 0" result="hardAlpha"/>
<feOffset dy="0.5"/>
<feGaussianBlur stdDeviation="0.75"/>
<feComposite in2="hardAlpha" operator="arithmetic" k2="-1" k3="1"/>
<feColorMatrix type="matrix" values="0 0 0 0 0 0 0 0 0 0 0 0 0 0 0 0 0 0 0.04 0"/>
<feBlend mode="normal" in2="shape" result="effect1_innerShadow"/>
</filter>
<filter id="filter6_i" x="122.629" y="109.611" width="0.24404" height="0.24199" filterUnits="userSpaceOnUse" color-interpolation-filters="sRGB">
<feFlood flood-opacity="0" result="BackgroundImageFix"/>
<feBlend mode="normal" in="SourceGraphic" in2="BackgroundImageFix" result="shape"/>
<feColorMatrix in="SourceAlpha" type="matrix" values="0 0 0 0 0 0 0 0 0 0 0 0 0 0 0 0 0 0 127 0" result="hardAlpha"/>
<feOffset dy="0.1"/>
<feGaussianBlur stdDeviation="0.05"/>
<feComposite in2="hardAlpha" operator="arithmetic" k2="-1" k3="1"/>
<feColorMatrix type="matrix" values="0 0 0 0 0 0 0 0 0 0 0 0 0 0 0 0 0 0 0.25 0"/>
<feBlend mode="normal" in2="shape" result="effect1_innerShadow"/>
</filter>
<filter id="filter7_d" x="166.3" y="135.7" width="99.05" height="119.3" filterUnits="userSpaceOnUse" color-interpolation-filters="sRGB">
<feFlood flood-opacity="0" result="BackgroundImageFix"/>
<feColorMatrix in="SourceAlpha" type="matrix" values="0 0 0 0 0 0 0 0 0 0 0 0 0 0 0 0 0 0 127 0"/>
<feOffset dx="-7"/>
<feGaussianBlur stdDeviation="2"/>
<feColorMatrix type="matrix" values="0 0 0 0 0 0 0 0 0 0 0 0 0 0 0 0 0 0 0.4 0"/>
<feBlend mode="normal" in2="BackgroundImageFix" result="effect1_dropShadow"/>
<feBlend mode="normal" in="SourceGraphic" in2="effect1_dropShadow" result="shape"/>
</filter>
<linearGradient id="paint0_linear" x1="305" y1="69.0579" x2="327.144" y2="48.4156" gradientUnits="userSpaceOnUse">
<stop stop-color="#F67C01"/>
<stop offset="1" stop-color="#BB5E00"/>
</linearGradient>
<linearGradient id="paint1_linear" x1="341.957" y1="15.2495" x2="363.235" y2="37.674" gradientUnits="userSpaceOnUse">
<stop offset="0.213542" stop-color="#D2CECE"/>
<stop offset="1" stop-color="#393535"/>
</linearGradient>
<linearGradient id="paint2_linear" x1="341.957" y1="15.2495" x2="363.235" y2="37.674" gradientUnits="userSpaceOnUse">
<stop offset="0.213542" stop-color="#D2CECE"/>
<stop offset="1" stop-color="#393535"/>
</linearGradient>
<linearGradient id="paint3_linear" x1="334.161" y1="51.9444" x2="344.357" y2="62.6895" gradientUnits="userSpaceOnUse">
<stop stop-color="#404040"/>
<stop offset="1"/>
</linearGradient>
<linearGradient id="paint4_linear" x1="324.852" y1="42.1337" x2="313.77" y2="30.4543" gradientUnits="userSpaceOnUse">
<stop/>
<stop offset="1" stop-color="#7A7A7A"/>
</linearGradient>
<linearGradient id="paint5_linear" x1="365.125" y1="0.369062" x2="378.867" y2="14.8516" gradientUnits="userSpaceOnUse">
<stop stop-color="#8C8B8B"/>
<stop offset="1"/>
</linearGradient>
<linearGradient id="paint6_linear" x1="317.616" y1="40.1217" x2="336.234" y2="59.7432" gradientUnits="userSpaceOnUse">
<stop offset="0.1875" stop-color="white"/>
<stop offset="1" stop-color="#393535"/>
</linearGradient>
<linearGradient id="paint7_linear" x1="361.04" y1="-0.193718" x2="379.658" y2="19.4277" gradientUnits="userSpaceOnUse">
<stop offset="0.135417" stop-color="white"/>
<stop offset="1" stop-color="#393535"/>
</linearGradient>
<linearGradient id="paint8_linear" x1="361.353" y1="22.5918" x2="355.59" y2="16.5185" gradientUnits="userSpaceOnUse">
<stop offset="0.0885417" stop-color="#212121"/>
<stop offset="1" stop-color="#606060"/>
</linearGradient>
<linearGradient id="paint9_linear" x1="111.356" y1="146.839" x2="157.492" y2="252.314" gradientUnits="userSpaceOnUse">
<stop stop-color="#C50D15"/>
<stop offset="1" stop-color="#280001"/>
</linearGradient>
<linearGradient id="paint10_linear" x1="99.8485" y1="178.184" x2="106.948" y2="194.41" gradientUnits="userSpaceOnUse">
<stop stop-color="#1F0406"/>
<stop offset="1" stop-color="#A8111A"/>
</linearGradient>
<linearGradient id="paint11_linear" x1="161.044" y1="158.385" x2="164.108" y2="163.697" gradientUnits="userSpaceOnUse">
<stop stop-color="#190306"/>
<stop offset="1" stop-color="#E0131F"/>
</linearGradient>
<linearGradient id="paint12_linear" x1="181.232" y1="203.955" x2="187.577" y2="206.164" gradientUnits="userSpaceOnUse">
<stop stop-color="#2E0508"/>
<stop offset="1" stop-color="#7D060D"/>
</linearGradient>
<linearGradient id="paint13_linear" x1="127.921" y1="142.835" x2="128.33" y2="146.413" gradientUnits="userSpaceOnUse">
<stop stop-color="#420609"/>
<stop offset="1" stop-color="#DF131E"/>
</linearGradient>
<linearGradient id="paint14_linear" x1="138.273" y1="223.643" x2="142.752" y2="246.965" gradientUnits="userSpaceOnUse">
<stop stop-color="#150305"/>
<stop offset="1" stop-color="#70090F"/>
</linearGradient>
<linearGradient id="paint15_linear" x1="81.259" y1="228.361" x2="75.7242" y2="207.329" gradientUnits="userSpaceOnUse">
<stop stop-color="#6F060A"/>
<stop offset="1" stop-color="#8C080E"/>
</linearGradient>
<linearGradient id="paint16_linear" x1="83.1865" y1="227.773" x2="77.3114" y2="206.823" gradientUnits="userSpaceOnUse">
<stop stop-color="#6F060A"/>
<stop offset="1" stop-color="#8C080E"/>
</linearGradient>
<linearGradient id="paint17_linear" x1="145.462" y1="255.11" x2="123.38" y2="256.232" gradientUnits="userSpaceOnUse">
<stop stop-color="#2A0001"/>
<stop offset="1" stop-color="#360103"/>
</linearGradient>
<linearGradient id="paint18_linear" x1="145.556" y1="253.785" x2="123.395" y2="253.779" gradientUnits="userSpaceOnUse">
<stop stop-color="#2A0001"/>
<stop offset="1" stop-color="#360103"/>
</linearGradient>
<linearGradient id="paint19_linear" x1="183.099" y1="231.681" x2="190.848" y2="215.077" gradientUnits="userSpaceOnUse">
<stop stop-color="#380103"/>
<stop offset="1" stop-color="#470205"/>
</linearGradient>
<linearGradient id="paint20_linear" x1="181.482" y1="230.945" x2="189.166" y2="214.31" gradientUnits="userSpaceOnUse">
<stop stop-color="#380103"/>
<stop offset="1" stop-color="#470205"/>
</linearGradient>
<linearGradient id="paint21_linear" x1="176.457" y1="157.516" x2="184.206" y2="167.478" gradientUnits="userSpaceOnUse">
<stop stop-color="#92090E"/>
<stop offset="1" stop-color="#82070C"/>
</linearGradient>
<linearGradient id="paint22_linear" x1="175.572" y1="158.119" x2="183.066" y2="168.295" gradientUnits="userSpaceOnUse">
<stop stop-color="#92090E"/>
<stop offset="1" stop-color="#82070C"/>
</linearGradient>
<linearGradient id="paint23_linear" x1="118.028" y1="97.8222" x2="98.6761" y2="108.43" gradientUnits="userSpaceOnUse">
<stop stop-color="#778186"/>
<stop offset="1" stop-color="#474B4C"/>
</linearGradient>
<linearGradient id="paint24_linear" x1="118.314" y1="98.6822" x2="99.6795" y2="108.716" gradientUnits="userSpaceOnUse">
<stop stop-color="#C1C1C1"/>
<stop offset="1" stop-color="#929292"/>
</linearGradient>
<linearGradient id="paint25_linear" x1="137.665" y1="97.9655" x2="120.177" y2="191.569" gradientUnits="userSpaceOnUse">
<stop stop-color="#D4853F"/>
<stop offset="1" stop-color="#D79962"/>
</linearGradient>
<linearGradient id="paint26_linear" x1="137.666" y1="97.9655" x2="120.178" y2="191.569" gradientUnits="userSpaceOnUse">
<stop stop-color="#A25D21"/>
<stop offset="1" stop-color="#D79962"/>
</linearGradient>
<linearGradient id="paint27_linear" x1="137.666" y1="97.9655" x2="120.178" y2="191.569" gradientUnits="userSpaceOnUse">
<stop stop-color="#995316"/>
<stop offset="1" stop-color="#D79962"/>
</linearGradient>
<linearGradient id="paint28_linear" x1="123.618" y1="126.061" x2="126.198" y2="124.771" gradientUnits="userSpaceOnUse">
<stop stop-color="#6A4222"/>
<stop offset="1" stop-color="#D58947"/>
</linearGradient>
<linearGradient id="paint29_linear" x1="109.284" y1="106.996" x2="110.144" y2="109.72" gradientUnits="userSpaceOnUse">
<stop stop-color="#D48845"/>
<stop offset="1" stop-color="#4E3219"/>
</linearGradient>
<linearGradient id="paint30_linear" x1="122.041" y1="100.832" x2="123.905" y2="100.689" gradientUnits="userSpaceOnUse">
<stop stop-color="#D48641" stop-opacity="0"/>
<stop offset="1" stop-color="#4E3219"/>
</linearGradient>
<linearGradient id="paint31_linear" x1="103.12" y1="119.181" x2="104.078" y2="128.231" gradientUnits="userSpaceOnUse">
<stop stop-color="#D58A49"/>
<stop offset="1" stop-color="#281709"/>
</linearGradient>
<linearGradient id="paint32_linear" x1="82.7201" y1="80.0477" x2="116.693" y2="85.4947" gradientUnits="userSpaceOnUse">
<stop stop-color="#9F9F9F"/>
<stop offset="1" stop-color="#787877"/>
</linearGradient>
<linearGradient id="paint33_linear" x1="83.2933" y1="85.208" x2="109.525" y2="85.9247" gradientUnits="userSpaceOnUse">
<stop stop-color="#CBCBCB"/>
<stop offset="1" stop-color="#828380"/>
</linearGradient>
<linearGradient id="paint34_linear" x1="89.6206" y1="88.6763" x2="118.863" y2="89.3931" gradientUnits="userSpaceOnUse">
<stop stop-color="#1B0A5D"/>
<stop offset="0.390625" stop-color="#1B0A5D"/>
<stop offset="0.970597" stop-color="#010005"/>
</linearGradient>
<linearGradient id="paint35_linear" x1="109.689" y1="76.4922" x2="94.2075" y2="87.6731" gradientUnits="userSpaceOnUse">
<stop stop-color="#FFF9FF" stop-opacity="0.36"/>
<stop offset="1" stop-color="#1B0A5D" stop-opacity="0"/>
</linearGradient>
<linearGradient id="paint36_linear" x1="88.1671" y1="88.3615" x2="119.989" y2="88.3615" gradientUnits="userSpaceOnUse">
<stop stop-color="#5B5C59"/>
<stop offset="1" stop-color="#3F403E"/>
</linearGradient>
<linearGradient id="paint37_linear" x1="120.504" y1="109.006" x2="121.093" y2="109.741" gradientUnits="userSpaceOnUse">
<stop stop-color="#A58C7A"/>
<stop offset="1" stop-color="#7B5C46" stop-opacity="0"/>
</linearGradient>
<linearGradient id="paint38_linear" x1="120.504" y1="109.006" x2="121.093" y2="109.741" gradientUnits="userSpaceOnUse">
<stop stop-color="#A58C7A"/>
<stop offset="1" stop-color="#7B5C46" stop-opacity="0"/>
</linearGradient>
<linearGradient id="paint39_linear" x1="121.224" y1="108.89" x2="121.491" y2="109.218" gradientUnits="userSpaceOnUse">
<stop stop-color="#95614F"/>
<stop offset="1" stop-color="#372620" stop-opacity="0"/>
</linearGradient>
<linearGradient id="paint40_linear" x1="120.857" y1="108.853" x2="121.172" y2="109.242" gradientUnits="userSpaceOnUse">
<stop stop-color="#95614F"/>
<stop offset="1" stop-color="#372620" stop-opacity="0"/>
</linearGradient>
<linearGradient id="paint41_linear" x1="120.572" y1="108.955" x2="120.871" y2="109.324" gradientUnits="userSpaceOnUse">
<stop stop-color="#95614F"/>
<stop offset="1" stop-color="#372620" stop-opacity="0"/>
</linearGradient>
<linearGradient id="paint42_linear" x1="120.354" y1="109.13" x2="120.624" y2="109.464" gradientUnits="userSpaceOnUse">
<stop stop-color="#95614F"/>
<stop offset="1" stop-color="#372620" stop-opacity="0"/>
</linearGradient>
<linearGradient id="paint43_linear" x1="120.209" y1="109.322" x2="120.451" y2="109.622" gradientUnits="userSpaceOnUse">
<stop stop-color="#95614F"/>
<stop offset="1" stop-color="#372620" stop-opacity="0"/>
</linearGradient>
<linearGradient id="paint44_linear" x1="120.09" y1="109.571" x2="120.301" y2="109.832" gradientUnits="userSpaceOnUse">
<stop stop-color="#95614F"/>
<stop offset="1" stop-color="#372620" stop-opacity="0"/>
</linearGradient>
<linearGradient id="paint45_linear" x1="120.038" y1="109.858" x2="120.212" y2="110.072" gradientUnits="userSpaceOnUse">
<stop stop-color="#95614F"/>
<stop offset="1" stop-color="#372620" stop-opacity="0"/>
</linearGradient>
<linearGradient id="paint46_linear" x1="121.287" y1="110.174" x2="121.309" y2="110.331" gradientUnits="userSpaceOnUse">
<stop/>
<stop offset="1" stop-color="#BC0624"/>
</linearGradient>
<linearGradient id="paint47_linear" x1="122.559" y1="106.553" x2="123.137" y2="112.08" gradientUnits="userSpaceOnUse">
<stop offset="0.0001" stop-color="#F44336"/>
<stop offset="1" stop-color="#BC0624" stop-opacity="0"/>
</linearGradient>
</defs>
</svg>
